<svg width="121" height="37" viewBox="0 0 121 37" fill="none" xmlns="http://www.w3.org/2000/svg">
<path d="M74.5312 5.28038H84.379V10.5638C85.2122 8.53684 86.3286 7.09137 87.7283 6.22741C89.128 5.33022 90.8109 4.89824 92.7772 4.93147V11.0907V14.1027C92.3232 14.0751 91.8871 14.0622 91.469 14.064C89.3703 14.0727 87.7235 14.4512 86.5286 15.1993C85.0955 16.0633 84.379 17.4423 84.379 19.3363V31.3487H74.5312V5.28038Z" fill="#0A0620"/>
<path fill-rule="evenodd" clip-rule="evenodd" d="M103.509 31.9007L119.171 23.3518L119.359 23.2521C119.877 21.7908 120.136 20.1723 120.136 18.3966V17.9978C120.136 15.9044 119.753 14.0269 118.987 12.3655C118.254 10.704 117.237 9.3084 115.937 8.1786C114.638 7.01558 113.105 6.135 111.338 5.53688C109.572 4.90552 107.673 4.58984 105.64 4.58984C103.573 4.58984 101.641 4.90552 99.841 5.53688C98.0747 6.16823 96.5417 7.08204 95.242 8.27829C93.9423 9.44131 92.9092 10.8702 92.1427 12.5649C91.4095 14.2263 91.043 16.1204 91.043 18.2471V18.6458C91.043 20.8057 91.4095 22.7164 92.1427 24.3779C92.9092 26.0061 93.9423 27.4017 95.242 28.5647C96.5751 29.6945 98.1247 30.5585 99.891 31.1566C101.041 31.5243 102.247 31.7723 103.509 31.9007ZM105.64 24.7766C108.639 24.7766 110.139 22.6666 110.139 18.4464V18.0975C110.139 16.0373 109.772 14.4755 109.039 13.4122C108.306 12.3489 107.173 11.8172 105.64 11.8172C104.14 11.8172 102.99 12.3323 102.19 13.3624C101.391 14.3592 100.991 15.8878 100.991 17.948V18.3468C100.991 22.6333 102.54 24.7766 105.64 24.7766Z" fill="#0A0620"/>
<path d="M38.7111 5.28375H28.8633V31.3521H38.7111V16.9472C38.7111 15.3854 39.0443 14.239 39.7108 13.508C40.4107 12.7769 41.3771 12.4114 42.6102 12.4114C43.7766 12.4114 44.6098 12.7437 45.1096 13.4083C45.6429 14.0729 45.9095 15.0698 45.9095 16.3989V31.2925L55.7573 25.9173V14.2058C55.7573 12.5776 55.5406 11.1653 55.1074 9.96907C54.7075 8.77282 54.1409 7.77594 53.4078 6.97844C52.6746 6.18094 51.7915 5.58281 50.7584 5.18406C49.7253 4.78531 48.5922 4.58594 47.3591 4.58594C45.1596 4.58594 43.3434 5.05115 41.9104 5.98157C40.5107 6.91198 39.4442 8.07501 38.7111 9.47064V5.28375Z" fill="#0A0620"/>
<path fill-rule="evenodd" clip-rule="evenodd" d="M11.9632 12.0275C12.4201 11.585 13.1358 11.3638 14.1103 11.3638C14.7768 11.3638 15.31 11.4635 15.71 11.6628C16.1099 11.829 16.4098 12.0948 16.6098 12.4603C16.843 12.7926 16.993 13.1914 17.0597 13.6566C17.1263 14.1218 17.1596 14.6202 17.1596 15.1519V15.6005H14.9101C10.3778 15.6005 6.89526 16.2651 4.46247 17.5942C2.06301 18.8902 0.863281 21.0667 0.863281 24.1238C0.863281 25.5194 1.09656 26.7157 1.56312 27.7126C2.06301 28.7094 2.71287 29.5236 3.51269 30.1549C4.34583 30.7863 5.29562 31.2515 6.36205 31.5505C7.4618 31.8496 8.59488 31.9991 9.76129 31.9991C10.8277 31.9991 11.7608 31.8828 12.5607 31.6502C13.3938 31.4508 14.127 31.185 14.7602 30.8527C15.3934 30.5204 15.9266 30.1383 16.3598 29.7063C16.793 29.2743 17.143 28.8257 17.4096 28.3605V31.3512H26.9074V14.5039C26.9074 11.0813 25.8244 8.57251 23.6582 6.97751C21.492 5.34927 18.5093 4.53516 14.7102 4.53516C12.8439 4.53516 11.1276 4.73453 9.56133 5.13328C9.09467 5.25467 8.64653 5.39607 8.21693 5.55749L11.9632 12.0275ZM16.0599 24.5724C15.36 25.1373 14.4436 25.4197 13.3105 25.4197C12.4107 25.4197 11.7275 25.237 11.261 24.8715C10.7944 24.5059 10.5611 24.0075 10.5611 23.3761C10.5611 22.4457 10.8944 21.7978 11.5609 21.4322C12.2274 21.0667 13.3938 20.8839 15.0601 20.8839H17.1596V22.2297C17.1596 23.1934 16.793 23.9743 16.0599 24.5724Z" fill="#0A0620"/>
<path d="M67.3646 31.9998C64.2653 31.9998 61.8825 31.2687 60.2162 29.8066C58.5499 28.3446 57.7168 25.9687 57.7168 22.679V0H67.5646V5.3333H72.5635V14.2633H67.5646V21.7319C67.5646 22.6291 67.7812 23.2771 68.2144 23.6758C68.681 24.0746 69.3142 24.274 70.114 24.274C70.9805 24.274 71.797 24.1411 72.5635 23.8752V31.2521C71.9636 31.4183 71.2138 31.5844 70.314 31.7506C69.4142 31.9167 68.4311 31.9998 67.3646 31.9998Z" fill="#0A0620"/>
</svg>
