<svg width="164" height="17" viewBox="0 0 164 17" fill="none" xmlns="http://www.w3.org/2000/svg">
<mask id="mask0_1_2694" style="mask-type:luminance" maskUnits="userSpaceOnUse" x="0" y="0" width="164" height="17">
<path d="M164 0H0V16.2376H164V0Z" fill="white"/>
</mask>
<g mask="url(#mask0_1_2694)">
<path d="M163.587 6.15083C163.587 3.88474 161.939 2.2661 159.674 2.2661H151.129V13.4886H153.704V9.92762H158.336L161.013 13.4886H163.998L161.218 9.71182H161.322C162.763 9.17224 163.587 7.87737 163.587 6.15083ZM161.013 6.04292C161.013 7.0141 160.395 7.66155 159.366 7.66155H153.704V4.42429H159.263C160.395 4.53219 161.013 5.28755 161.013 6.04292ZM148.247 7.87737C148.247 4.31637 145.467 1.94238 141.143 1.94238C137.849 1.94238 134.04 3.45311 134.04 7.87737C134.04 10.2514 135.275 11.5463 136.305 12.3016C137.54 13.2728 139.29 13.8124 141.041 13.8124C142.893 13.8124 144.644 13.2728 145.982 12.3016C147.526 11.2226 148.247 9.71182 148.247 7.87737ZM145.467 7.87737C145.467 10.2514 143.82 11.5463 141.143 11.5463C139.187 11.5463 136.82 10.5751 136.82 7.87737C136.82 5.39547 138.981 4.20847 141.143 4.20847C143.923 4.20847 145.467 5.61128 145.467 7.87737ZM122.098 13.4886H132.701V11.2226H124.672V2.2661H122.2L122.098 13.4886ZM115.406 13.4886H118.082V2.2661H115.406V13.4886ZM109.744 13.4886H112.523L106.655 2.2661H105.111H103.567L97.6984 13.4886H100.375L101.713 10.8988H108.302L109.744 13.4886ZM107.273 8.63275H102.949L105.111 4.42429L107.273 8.63275ZM98.1101 2.2661H84.2115V4.74801H89.8743V13.4886H92.3449V4.74801H98.007L98.1101 2.2661ZM76.2846 13.4886H78.7554V2.2661H75.7699L71.5489 7.22991L67.4309 2.2661H64.4452V13.4886H66.916V5.71919V5.50338L67.1219 5.71919L71.6518 11.1147L76.1816 5.71919L76.3875 5.50338V5.71919L76.2846 13.4886ZM61.5627 7.87737C61.5627 4.31637 58.783 1.94238 54.5621 1.94238C51.2676 1.94238 47.5614 3.45311 47.5614 7.87737C47.5614 10.2514 48.7968 11.5463 49.8264 12.3016C51.0617 13.2728 52.8119 13.8124 54.5621 13.8124C56.4152 13.8124 58.1653 13.2728 59.5036 12.3016C60.7391 11.2226 61.5627 9.71182 61.5627 7.87737ZM58.783 7.87737C58.783 10.2514 57.2387 11.5463 54.4591 11.5463C52.503 11.5463 50.1352 10.5751 50.1352 7.87737C50.1352 5.39547 52.2972 4.20847 54.4591 4.20847C57.1358 4.20847 58.783 5.61128 58.783 7.87737ZM39.9431 4.74801H45.6054V2.2661H31.707V4.74801H37.3693V13.4886H39.8401L39.9431 4.74801Z" fill="#0A0620"/>
<path fill-rule="evenodd" clip-rule="evenodd" d="M22.958 2.26609C20.5901 0.863273 17.1927 0 13.5894 0C9.88327 0 6.58883 0.863273 4.11802 2.26609C1.54425 3.66891 0 5.71918 0 8.09317C0 10.4672 1.54425 12.4095 4.11802 13.9203C6.58883 15.323 9.88327 16.1863 13.5894 16.1863C17.2957 16.1863 20.5901 15.323 23.0609 13.9203C25.6347 12.4095 27.1789 10.4672 27.1789 8.09317C27.076 5.71918 25.5317 3.66891 22.958 2.26609ZM25.8406 8.09317C25.8406 9.8197 24.5022 11.4384 22.4432 12.7332C20.1783 14.0282 17.0898 14.7835 13.5894 14.7835C10.1921 14.7835 7.00062 14.0282 4.73572 12.7332C2.57376 11.5463 1.33835 9.9276 1.33835 8.09317C1.33835 6.25872 2.67671 4.64009 4.73572 3.45309C7.00062 2.15818 10.0892 1.40282 13.5894 1.40282C16.9868 1.40282 20.1783 2.15818 22.4432 3.45309C24.5022 4.64009 25.8406 6.25872 25.8406 8.09317Z" fill="#0A0620"/>
<path fill-rule="evenodd" clip-rule="evenodd" d="M10.7088 12.4096V7.12203C8.95858 7.44576 7.10547 7.9853 7.10547 7.9853V4.85594C9.57626 4.20849 11.7382 3.99268 13.5913 3.99268C15.2386 3.99268 17.7094 4.20849 20.1802 4.85594V7.8774C20.1802 7.8774 18.327 7.33785 16.5769 7.01412V12.1938C16.4739 12.4096 10.7088 12.4096 10.7088 12.4096Z" fill="#0A0620"/>
</g>
</svg>
