<svg width="82" height="24" viewBox="0 0 82 24" fill="none" xmlns="http://www.w3.org/2000/svg">
<mask id="mask0_1_2759" style="mask-type:luminance" maskUnits="userSpaceOnUse" x="0" y="0" width="82" height="24">
<path d="M82 0H0V23.2333H82V0Z" fill="white"/>
</mask>
<g mask="url(#mask0_1_2759)">
<path d="M18.2406 0.92651L17.9742 0.926619L17.9732 1.05453C17.9471 4.71425 17.9506 8.43522 17.9545 12.0339C17.9572 14.8433 17.9599 17.7436 17.9486 20.605C13.9561 14.5169 9.76539 8.11207 5.14747 1.0399L5.10943 0.981717L5.03997 0.9816C4.67815 0.980568 4.31496 0.980568 3.95314 0.9816L3.82462 0.982065L3.82451 8.41137C3.82416 13.2786 3.82405 18.1463 3.82462 23.0143V23.1433L5.15272 23.1403V23.0119C5.15353 20.4929 5.1533 17.9737 5.15272 15.4543C5.15204 11.4448 5.15124 7.4357 5.15581 3.42667C9.71181 10.401 13.9235 16.834 18.0254 23.0827L18.0634 23.1405L18.1327 23.1408C18.4717 23.142 18.8119 23.142 19.1522 23.142H19.2811V23.0132C19.283 20.2492 19.282 17.4853 19.2807 14.721C19.279 10.1827 19.2771 5.64382 19.2883 1.10586L19.2885 0.997372L19.1814 0.978853C18.8664 0.923989 18.5484 0.924221 18.2406 0.92651Z" fill="black"/>
<path d="M80.3729 0.930487L80.336 0.996443C80.2827 1.09292 74.9937 10.5838 72.2877 15.5091C70.9921 13.151 69.6869 10.7981 68.3818 8.4452C67.0035 5.96145 65.6254 3.47763 64.2594 0.987867L64.2226 0.920654L62.6523 0.924877L66.0363 7.01013C67.7632 10.1162 69.4901 13.2218 71.2162 16.3197C71.2565 16.4036 71.3044 16.4867 71.3522 16.5698C71.4827 16.7982 71.6071 17.0141 71.5839 17.2673C71.5811 18.4698 71.5811 19.6725 71.5818 20.8755V23.0823H72.9936V20.8755C72.9943 19.6725 72.9943 18.4698 72.9908 17.2558C72.9683 17.0138 73.0927 16.798 73.2239 16.5693C73.2717 16.4861 73.3188 16.4034 73.3557 16.3262C75.0859 13.2218 76.812 10.1162 78.5388 7.01013L81.924 0.923394L80.3729 0.930487Z" fill="black"/>
<path d="M61.1369 0.960534L60.1892 0.958252C56.7835 0.963049 53.3756 0.963049 49.9688 0.958252L49.0208 0.960534L49.0195 2.31282L49.1458 2.31556C50.1957 2.33751 51.2688 2.32916 52.2148 2.32184C52.8461 2.32435 53.4787 2.32333 54.1049 2.31761C54.2077 2.32161 54.3104 2.33395 54.409 2.34848C54.4124 2.56566 54.4131 2.78239 54.4139 2.99912C54.4146 3.21071 54.4155 3.4223 54.4185 3.6308C54.4172 3.79174 54.4172 3.95246 54.4185 4.11501L54.42 4.23023L54.4183 5.92464C54.4164 6.17418 54.416 6.42325 54.4175 6.67119L54.4146 9.28864C54.4139 9.40303 54.4137 9.51797 54.4142 9.63215C54.4114 13.69 54.413 17.748 54.4218 21.8047L54.4231 23.1973L54.5554 23.194C54.7306 23.1898 54.9056 23.1877 55.0778 23.186C55.2522 23.1877 55.4274 23.1898 55.6028 23.194L55.7515 23.1797L55.7364 21.8029C55.7453 17.7463 55.7464 13.6892 55.7437 9.63277L55.7409 6.67233C55.742 6.42371 55.7415 6.17498 55.7398 5.92727L55.7379 4.23194L55.7395 4.11352C55.7409 3.95246 55.7409 3.79174 55.7395 3.63377C55.7429 3.41933 55.7435 3.20499 55.7443 2.99044C55.745 2.77668 55.7457 2.56281 55.7491 2.34848C55.8475 2.33395 55.949 2.32161 56.0469 2.31761C56.6786 2.3239 57.3107 2.32469 57.9416 2.32184C58.8888 2.32916 59.9613 2.33751 61.0124 2.31556L61.1387 2.31282V2.18684C61.1387 1.82082 61.1387 1.45481 61.1374 1.08891L61.1369 0.960534Z" fill="black"/>
<path d="M0.128641 0.956157L0 0.956376V23.1166H1.31588V0.956376L1.18713 0.956157C0.833995 0.955125 0.481775 0.955125 0.128641 0.956157Z" fill="black"/>
<path d="M46.2808 0.955289L46.1523 0.955747V23.1158H47.4756V0.955747L47.3472 0.955289C46.9914 0.954031 46.6354 0.954031 46.2808 0.955289Z" fill="black"/>
<path d="M42.8914 13.7947C42.2871 16.4502 40.6795 18.714 38.3649 20.1692C36.0502 21.6242 33.3104 22.0928 30.6512 21.4898C27.9917 20.8863 25.7243 19.281 24.2669 16.9698C22.8096 14.6591 22.3401 11.9238 22.9444 9.26798C24.1942 3.77734 29.685 0.325668 35.1842 1.57279L35.4224 1.62731L35.7146 0.343728L35.4765 0.289889C32.4754 -0.391622 29.3822 0.137744 26.7689 1.78048C24.1566 3.42299 22.3418 5.97848 21.6595 8.97674C20.2487 15.1751 24.1515 21.3641 30.3593 22.7727C31.2004 22.9638 32.0617 23.0608 32.9192 23.0608C38.2586 23.0608 42.9927 19.2863 44.1761 14.086L44.2301 13.8484L42.9454 13.5565L42.8914 13.7947Z" fill="black"/>
</g>
</svg>
