<svg width="86" height="23" viewBox="0 0 86 23" fill="none" xmlns="http://www.w3.org/2000/svg">
<mask id="mask0_1_2785" style="mask-type:luminance" maskUnits="userSpaceOnUse" x="0" y="0" width="86" height="23">
<path d="M86 0H0V22.2167H86V0Z" fill="white"/>
</mask>
<g mask="url(#mask0_1_2785)">
<path d="M32.8727 0.522461L25.4531 20.2111H29.4404L30.9802 16.099H38.8577L40.3902 20.2111H44.3472L36.9552 0.522461H32.8727ZM32.3313 12.4856L34.9272 5.55741L37.5085 12.4856H32.3313Z" fill="#0A0620"/>
<path d="M78.942 6.13037C77.5466 6.13037 76.1829 6.5505 75.023 7.33767C73.8631 8.12478 72.9594 9.24363 72.4258 10.5525C71.8916 11.8615 71.7523 13.3019 72.024 14.6914C72.2962 16.081 72.968 17.3575 73.9547 18.3593C74.9407 19.3612 76.1973 20.0434 77.5656 20.3199C78.9339 20.5962 80.3523 20.4544 81.6411 19.9122C82.9294 19.37 84.0312 18.4519 84.806 17.2738C85.5813 16.0958 85.9947 14.7107 85.9947 13.294C85.9947 11.394 85.2515 9.57197 83.9293 8.22856C82.6065 6.88509 80.8122 6.13037 78.942 6.13037ZM78.942 16.7845C78.2621 16.7845 77.5979 16.5799 77.0332 16.1965C76.4679 15.813 76.0275 15.268 75.7673 14.6303C75.5071 13.9927 75.4392 13.291 75.5722 12.6141C75.7046 11.9372 76.0315 11.3153 76.5122 10.8273C76.9929 10.3393 77.6048 10.0069 78.2713 9.87224C78.9379 9.7376 79.6287 9.8067 80.2567 10.0708C80.8842 10.3349 81.4212 10.7822 81.7988 11.3561C82.1759 11.93 82.3774 12.6047 82.3774 13.2949C82.3785 13.7533 82.2899 14.2075 82.1177 14.6312C81.9451 15.0549 81.6924 15.4399 81.3729 15.764C81.054 16.0883 80.6746 16.3453 80.2573 16.5204C79.8405 16.6955 79.3933 16.7853 78.942 16.7845Z" fill="#0A0620"/>
<path d="M49.098 15.1333L45.8774 6.37891H42.0742L47.2578 20.2111H51.0308L56.1218 6.37891H52.3186L49.098 15.1333Z" fill="#0A0620"/>
<path d="M68.0827 2.70291H64.4637V6.37866H62.3477V9.68134H64.4637V15.5694C64.4637 18.9028 66.2735 20.3355 68.819 20.3355C69.6824 20.3481 70.539 20.1783 71.3345 19.8368V16.4104C70.9016 16.5725 70.4451 16.6584 69.984 16.6644C68.8852 16.6644 68.0827 16.2281 68.0827 14.733V9.68134H71.3345V6.37866H68.0827V2.70291Z" fill="#0A0620"/>
<path d="M59.0952 5.38238C60.5521 5.38238 61.7333 4.1828 61.7333 2.70303C61.7333 1.22327 60.5521 0.0236816 59.0952 0.0236816C57.6382 0.0236816 56.457 1.22327 56.457 2.70303C56.457 4.1828 57.6382 5.38238 59.0952 5.38238Z" fill="#0A0620"/>
<path d="M60.906 6.37891H57.2871V20.2111H60.906V6.37891Z" fill="#0A0620"/>
<path d="M7.07641 22.1739C10.9727 22.1739 14.1313 18.9658 14.1313 15.0085C14.1313 11.0511 10.9727 7.84311 7.07641 7.84311C3.18009 7.84311 0.0214844 11.0511 0.0214844 15.0085C0.0214844 18.9658 3.18009 22.1739 7.07641 22.1739Z" fill="#0A0620"/>
<path d="M19.3138 21.2699C21.6682 21.2699 23.5768 19.3314 23.5768 16.9401C23.5768 14.5488 21.6682 12.6104 19.3138 12.6104C16.9594 12.6104 15.0508 14.5488 15.0508 16.9401C15.0508 19.3314 16.9594 21.2699 19.3138 21.2699Z" fill="#0A0620"/>
<path d="M8.42513 6.90905C9.88213 6.90905 11.0632 5.70946 11.0632 4.22969C11.0632 2.74993 9.88213 1.55034 8.42513 1.55034C6.9682 1.55034 5.78711 2.74993 5.78711 4.22969C5.78711 5.70946 6.9682 6.90905 8.42513 6.90905Z" fill="#0A0620"/>
<path d="M17.6598 11.6752C20.8276 11.6752 23.3957 9.06687 23.3957 5.84943C23.3957 2.63195 20.8276 0.0236816 17.6598 0.0236816C14.4919 0.0236816 11.9238 2.63195 11.9238 5.84943C11.9238 9.06687 14.4919 11.6752 17.6598 11.6752Z" fill="#0A0620"/>
</g>
</svg>
