<svg width="92" height="20" viewBox="0 0 92 20" fill="none" xmlns="http://www.w3.org/2000/svg">
<path d="M22.3229 7.1283C23.0124 7.12969 23.686 6.92089 24.2597 6.52965C24.8353 6.13601 25.2824 5.57996 25.5449 4.93139C25.8093 4.27884 25.8788 3.56283 25.7448 2.87113C25.6117 2.18167 25.2801 1.54677 24.7912 1.04534C24.3069 0.5479 23.6857 0.207725 23.0075 0.0686272C22.3315 -0.0690974 21.6298 0.00149468 20.9943 0.271184C20.355 0.543095 19.8107 1.00021 19.4305 1.58434C19.047 2.17299 18.843 2.86167 18.8438 3.56551C18.8438 4.03306 18.9334 4.49644 19.1078 4.92861C19.2819 5.35966 19.5382 5.75227 19.8621 6.0843C20.1839 6.41437 20.5675 6.67702 20.9908 6.85707C21.4124 7.03592 21.8653 7.12814 22.3229 7.1283Z" fill="#0A0620"/>
<path d="M13.1953 15.3137C12.1675 16.367 10.8055 17.0248 9.34588 17.1728C7.88899 17.318 6.42776 16.943 5.21794 16.1135C3.99794 15.2752 3.10273 14.0391 2.68339 12.6139C2.25968 11.182 2.33386 9.64752 2.89369 8.26374C3.44743 6.88778 4.45747 5.74707 5.75229 5.03532C7.03787 4.33113 8.52895 4.10517 9.96366 4.39712C11.4031 4.69247 12.6947 5.48452 13.6152 6.63635C14.5444 7.79836 15.0505 9.24531 15.0493 10.7367C15.0504 11.5858 14.8871 12.4269 14.5687 13.2132C14.2519 13.9962 13.7852 14.7089 13.1953 15.3109V15.313V15.3137ZM8.72742 1.81452C6.99872 1.81428 5.3099 2.33706 3.88034 3.31497C2.44003 4.30169 1.32173 5.6947 0.665962 7.31894C0.00453878 8.95221 -0.168943 10.7441 0.166775 12.4751C0.499685 14.201 1.32924 15.7903 2.55239 17.0458C3.76513 18.2907 5.32048 19.1419 7.01818 19.4897C8.71018 19.8345 10.4642 19.6576 12.0583 18.9826C13.6585 18.3021 15.0213 17.158 15.9732 15.6959C16.9337 14.2228 17.4449 12.4992 17.4439 10.7374C17.4454 8.38 16.5283 6.11591 14.8893 4.43111C14.0863 3.60519 13.1279 2.9483 12.07 2.49872C11.0121 2.04914 9.87582 1.81585 8.72742 1.81244M68.6788 2.20299H67.4563C67.4563 2.20299 66.8248 2.20299 66.8248 2.84881V18.6177C66.8248 19.2636 67.455 19.2636 67.455 19.2636H68.6788C68.6788 19.2636 69.309 19.2636 69.309 18.6177V2.84881C69.309 2.20299 68.6788 2.20299 68.6788 2.20299ZM35.3436 19.6624C32.766 19.6917 30.2537 18.8475 28.2109 17.2657C28.1536 17.2213 28.0985 17.1797 28.0495 17.1395C27.986 17.0885 27.9336 17.025 27.8956 16.9528C27.8575 16.8806 27.8346 16.8013 27.8282 16.7198C27.8215 16.6382 27.8313 16.5561 27.8569 16.4784C27.8825 16.4007 27.9234 16.329 27.9771 16.2675C28.0888 16.1239 28.3977 15.7792 28.7418 15.3976C28.7783 15.3574 28.8176 15.3199 28.8604 15.2867C29.2092 14.9537 29.6119 15.2547 29.694 15.3193C31.5335 16.7989 33.2165 17.4073 35.4215 17.4073C37.6272 17.4073 39.1502 16.3445 39.1502 14.8288V14.7803C39.1502 13.4206 38.4608 12.5951 34.6893 11.855C30.9088 11.0898 28.3888 9.92652 28.3888 6.73485V6.6863C28.3888 3.86853 31.0088 1.82354 34.6169 1.82354C36.7755 1.75083 38.9 2.37987 40.6754 3.61742L40.8615 3.75199C40.9839 3.84705 41.0658 3.98529 41.0908 4.13877C41.1157 4.29225 41.0818 4.44954 40.996 4.57887C40.8767 4.72177 40.4665 5.22608 40.2582 5.47165C39.9528 5.75814 39.8197 5.93642 39.0723 5.45708L38.8448 5.32667C37.6423 4.60176 36.1303 4.05722 34.57 4.0704C32.4809 4.0704 31.0212 5.07278 31.0212 6.50524V6.55311C31.0212 7.92384 31.7438 8.7632 35.689 9.55123C39.9769 10.4211 41.8048 11.9236 41.8048 14.5756V14.6242C41.8048 17.5855 39.1447 19.6534 35.3436 19.6534M59.9851 2.20299H46.3505C46.3505 2.20299 45.7203 2.20299 45.7203 2.84881V4.12104C45.7203 4.76617 46.3505 4.76617 46.3505 4.76617H51.9512V18.6177C51.9512 18.6177 51.9512 19.2636 52.5814 19.2636H53.8066C54.4354 19.2636 54.4375 18.6219 54.4375 18.6184V4.76478H59.9913C59.9913 4.76478 60.6208 4.76478 60.6208 4.12034V2.84881C60.6208 2.20299 59.9913 2.20299 59.9913 2.20299M90.4003 2.20299H89.1524C88.5222 2.20299 88.5222 2.8495 88.5222 2.8495V10.5952V10.5723V15.8929L78.8949 2.71562C78.7734 2.56118 78.6203 2.43485 78.446 2.34519C78.2729 2.25609 78.0826 2.20613 77.8882 2.19882H76.2231C76.2231 2.19882 75.5916 2.19882 75.5916 2.84465V18.6039C75.5916 18.6039 75.5916 19.2428 76.2135 19.249H77.5083C78.1385 19.249 78.1385 18.6039 78.1385 18.6039V5.63189L87.7734 18.7315C87.8942 18.8856 88.0468 19.0116 88.2205 19.1009C88.3942 19.1902 88.5851 19.2408 88.78 19.249H90.39C90.39 19.249 91.0202 19.249 91.0202 18.6039V2.84465C91.0202 2.84465 91.0202 2.20437 90.3962 2.19882" fill="#0A0620"/>
</svg>
