<svg width="88" height="27" viewBox="0 0 88 27" fill="none" xmlns="http://www.w3.org/2000/svg">
<path d="M15.0266 22.7965C15.2547 22.7965 15.4395 22.9833 15.4395 23.2142V26.0664C15.4395 26.2973 15.2547 26.4841 15.0266 26.4841H8.83466C8.60652 26.4841 8.42188 26.2973 8.42188 26.0664V0.417679C8.42188 0.186856 8.60652 0 8.83466 0H15.0212C15.2494 0 15.434 0.186856 15.434 0.417679V3.32494C15.434 3.55576 15.2494 3.74262 15.0212 3.74262H12.3869C12.1588 3.74262 11.9741 3.92947 11.9741 4.1603V22.3788C11.9741 22.6096 12.1588 22.7965 12.3869 22.7965H15.0266Z" fill="#0A0620"/>
<path d="M86.887 26.4841C87.1154 26.4841 87.3001 26.2973 87.3001 26.0664V0.417679C87.3001 0.186856 87.1154 0 86.887 0H83.0686C82.841 0 82.6562 0.186856 82.6562 0.417679V26.0664C82.6562 26.2973 82.841 26.4841 83.0686 26.4841H86.887Z" fill="#0A0620"/>
<path d="M14.7239 7.31574C14.6586 7.09591 14.789 6.91455 15.0117 6.92004H16.9616C17.1897 6.92004 17.4233 7.10141 17.4885 7.32124L19.7372 15.2627C19.7969 15.4825 19.9055 15.4825 19.9707 15.2627L22.3281 7.33223C22.3932 7.1124 22.6322 6.93103 22.8603 6.93103H24.5387C24.7668 6.93103 25.0058 7.1124 25.071 7.33223L27.45 15.2901C27.5152 15.51 27.6238 15.51 27.6835 15.2901L29.9213 7.32673C29.9811 7.1069 30.2201 6.92554 30.4428 6.92554H32.2026C32.4307 6.92554 32.5611 7.1069 32.4959 7.32673L28.9491 19.2086C28.8839 19.4284 28.6449 19.6098 28.4168 19.6098L26.7222 19.6043C26.494 19.6043 26.2551 19.4229 26.1899 19.2031L23.8271 11.2672C23.762 11.0473 23.6533 11.0473 23.5882 11.2672L21.2091 19.1976C21.1439 19.4174 20.905 19.5988 20.6768 19.5988H18.8844C18.6563 19.5988 18.4173 19.4174 18.3521 19.1976L14.7239 7.31574Z" fill="#0A0620"/>
<path d="M42.5577 19.5976C42.7858 19.5976 42.9705 19.4107 42.9705 19.1799V7.32002C42.9705 7.0892 42.7858 6.90234 42.5577 6.90234H40.9011C40.6729 6.90234 40.4883 7.0892 40.4883 7.32002V19.1799C40.4883 19.4107 40.6729 19.5976 40.9011 19.5976H42.5577Z" fill="#0A0620"/>
<path d="M60.8241 12.3265C60.8241 12.3265 61.4596 10.8481 63.2684 10.6997C63.5834 10.6997 63.5617 10.9306 63.5617 10.9306V12.8211C63.5617 12.8211 63.5508 13.0684 63.2792 13.0684C62.5839 13.052 60.8241 13.2388 60.8241 15.558V15.9867L60.8187 19.1797C60.8187 19.4105 60.634 19.5974 60.4059 19.5974L58.8308 19.6029C58.6026 19.6029 58.418 19.416 58.418 19.1852V11.0954C58.418 10.8646 58.6026 10.6777 58.8308 10.6777H60.4114C60.6395 10.6777 60.8241 10.8646 60.8241 11.0954V12.3265Z" fill="#0A0620"/>
<path d="M67.5332 17.9488C66.2513 17.9488 65.6104 16.7013 65.6104 15.1625C65.6104 13.6237 66.2513 12.3761 67.5332 12.3761C68.815 12.3761 69.4559 13.6237 69.4559 15.1625C69.4559 16.7013 68.815 17.9488 67.5332 17.9488ZM71.6015 6.90234H69.9448C69.7167 6.90234 69.532 7.0892 69.532 7.32002V11.5902C69.255 11.0132 68.7227 10.6395 67.6907 10.535C64.7087 10.2218 63.3672 12.6674 63.3672 15.168C63.3672 17.6741 64.7034 20.0647 67.6907 19.8009C68.7227 19.7075 69.255 19.3283 69.532 18.7073V19.1854C69.532 19.4162 69.7167 19.6031 69.9448 19.6031H71.6015C71.8295 19.6031 72.0143 19.4162 72.0143 19.1854V7.32002C72.0143 7.0892 71.8295 6.90234 71.6015 6.90234Z" fill="#0A0620"/>
<path d="M35.4437 12.3885C33.9772 12.3885 33.3145 13.636 33.3145 15.1748C33.3145 16.7136 33.9772 17.9612 35.4437 17.9612C36.845 17.9612 37.5729 16.7136 37.5729 15.1748C37.5729 13.636 36.845 12.3885 35.4437 12.3885ZM31.1094 15.1583C31.1094 12.6028 32.7116 10.5254 35.4383 10.5254C38.1595 10.5254 39.7618 12.5973 39.7618 15.1583C39.7618 17.7138 38.1541 19.7913 35.4383 19.7913C32.7171 19.7913 31.1094 17.7194 31.1094 15.1583Z" fill="#0A0620"/>
<path d="M53.4954 18.0306C52.0288 18.0306 51.3662 16.783 51.3662 15.2442C51.3662 13.7053 52.0288 12.4579 53.4954 12.4579C54.8967 12.4579 55.6246 13.7053 55.6246 15.2442C55.6246 16.783 54.8967 18.0306 53.4954 18.0306ZM53.4899 10.6003C53.1803 10.6003 52.8816 10.6332 52.5991 10.6827H47.4501C47.3088 8.68776 48.3408 8.88013 48.3408 8.88013C48.3408 8.88013 48.6776 8.87459 48.759 8.87459H48.8242C49.0523 8.87459 49.2371 8.7152 49.2371 8.48441V7.32479C49.2371 7.09397 49.0523 6.90711 48.8242 6.90711L48.4494 6.89062H47.4338C44.5821 6.89062 45.0004 10.6882 45.0004 10.6882V10.6992L44.5931 10.7102H44.1042C43.8761 10.7102 43.6914 10.8971 43.6914 11.1278V12.2875C43.6914 12.5183 43.8761 12.7052 44.1042 12.7052H44.6365L45.0384 12.7162L45.0493 13.1228V19.1792C45.0493 19.41 45.234 19.5968 45.4621 19.5968H47.0481C47.2762 19.5968 47.4609 19.41 47.4609 19.1792L47.4555 13.0954L47.4446 12.6777H47.8628L49.7856 12.6887C49.3783 13.4196 49.161 14.288 49.161 15.2277C49.161 17.7832 50.7633 19.8607 53.4899 19.8607C56.2112 19.8607 57.8134 17.7887 57.8134 15.2277C57.8134 12.6722 56.2112 10.6003 53.4899 10.6003Z" fill="#0A0620"/>
<path d="M72.2136 22.7965C71.9854 22.7965 71.8008 22.9833 71.8008 23.2142V26.0664C71.8008 26.2973 71.9854 26.4841 72.2136 26.4841H78.4001C78.6284 26.4841 78.8132 26.2973 78.8132 26.0664V0.417679C78.8132 0.186856 78.6284 0 78.4001 0H72.2136C71.9854 0 71.8008 0.186856 71.8008 0.417679V3.32494C71.8008 3.55576 71.9854 3.74262 72.2136 3.74262H74.8479C75.076 3.74262 75.2607 3.92947 75.2607 4.1603V22.3788C75.2607 22.6096 75.076 22.7965 74.8479 22.7965H72.2136Z" fill="#0A0620"/>
<path d="M27.5915 3.69865C27.8197 3.69865 28.0043 3.5118 28.0043 3.28098V0.417679C28.0043 0.186857 27.8197 0 27.5915 0H21.405C21.1768 0 20.9922 0.186857 20.9922 0.417679V3.28098C20.9922 3.5118 21.1768 3.69865 21.405 3.69865H27.5915Z" fill="#0A0620"/>
<path d="M40.2908 3.69865C40.5188 3.69865 40.7035 3.5118 40.7035 3.28098V0.417679C40.7035 0.186857 40.5188 0 40.2908 0H34.1042C33.8761 0 33.6914 0.186857 33.6914 0.417679V3.28098C33.6914 3.5118 33.8761 3.69865 34.1042 3.69865H40.2908Z" fill="#0A0620"/>
<path d="M53.0853 3.69865C53.3133 3.69865 53.4981 3.5118 53.4981 3.28098V0.417679C53.4981 0.186857 53.3133 0 53.0853 0H46.8933C46.6651 0 46.4805 0.186857 46.4805 0.417679V3.28098C46.4805 3.5118 46.6651 3.69865 46.8933 3.69865H53.0853Z" fill="#0A0620"/>
<path d="M65.8259 3.69865C66.0541 3.69865 66.2387 3.5118 66.2387 3.28098V0.417679C66.2387 0.186857 66.0541 0 65.8259 0H59.6394C59.4112 0 59.2266 0.186857 59.2266 0.417679V3.28098C59.2266 3.5118 59.4112 3.69865 59.6394 3.69865H65.8259Z" fill="#0A0620"/>
<path d="M27.5915 26.4994C27.8197 26.4994 28.0043 26.3126 28.0043 26.0817V23.2184C28.0043 22.9876 27.8197 22.8008 27.5915 22.8008H21.405C21.1768 22.8008 20.9922 22.9876 20.9922 23.2184V26.0817C20.9922 26.3126 21.1768 26.4994 21.405 26.4994H27.5915Z" fill="#0A0620"/>
<path d="M40.2908 26.4994C40.5188 26.4994 40.7035 26.3126 40.7035 26.0817V23.2184C40.7035 22.9876 40.5188 22.8008 40.2908 22.8008H34.1042C33.8761 22.8008 33.6914 22.9876 33.6914 23.2184V26.0817C33.6914 26.3126 33.8761 26.4994 34.1042 26.4994H40.2908Z" fill="#0A0620"/>
<path d="M53.0853 26.4994C53.3133 26.4994 53.4981 26.3126 53.4981 26.0817V23.2184C53.4981 22.9876 53.3133 22.8008 53.0853 22.8008H46.8933C46.6651 22.8008 46.4805 22.9876 46.4805 23.2184V26.0817C46.4805 26.3126 46.6651 26.4994 46.8933 26.4994H53.0853Z" fill="#0A0620"/>
<path d="M65.8259 26.4994C66.0541 26.4994 66.2387 26.3126 66.2387 26.0817V23.2184C66.2387 22.9876 66.0541 22.8008 65.8259 22.8008H59.6394C59.4112 22.8008 59.2266 22.9876 59.2266 23.2184V26.0817C59.2266 26.3126 59.4112 26.4994 59.6394 26.4994H65.8259Z" fill="#0A0620"/>
<path d="M0.412799 26.4841C0.184673 26.4841 0 26.2973 0 26.0664V0.417679C0 0.186856 0.184673 0 0.412799 0H4.23119C4.45389 0 4.64399 0.186856 4.64399 0.417679V26.0664C4.64399 26.2973 4.45931 26.4841 4.23119 26.4841H0.412799Z" fill="#0A0620"/>
</svg>
