<svg width="74" height="22" viewBox="0 0 74 22" fill="none" xmlns="http://www.w3.org/2000/svg">
<path fill-rule="evenodd" clip-rule="evenodd" d="M27.8301 5.84918V8.53487H20.9995V11.7794H27.8301V14.4666H18.125V0H27.8305V2.68714H20.9998V5.84918H27.8301ZM31.1279 14.4666V0H34.0023V11.7794H40.5626V14.4666H31.1279Z" fill="#0A0620"/>
<path fill-rule="evenodd" clip-rule="evenodd" d="M58.4485 7.2342C58.4485 11.2446 54.7452 14.4666 50.185 14.4666C45.6252 14.4666 41.9453 11.2446 41.9453 7.2342C41.9453 3.24166 45.6252 0 50.185 0C54.7452 0 58.4485 3.24166 58.4485 7.2342Z" fill="#0A0620"/>
<path fill-rule="evenodd" clip-rule="evenodd" d="M7.27336 7.23129L4.01559 3.99836L4.0134 4.00054L0 0.0185457V14.4484H2.87446V6.9244L7.27923 11.2947L7.60354 10.9726L11.6719 6.9364V14.4484H14.5636V0.0185457L7.27336 7.23129ZM70.6119 0.00909164H70.1494V8.24506L60.9316 0.00872803V14.4371H63.3418V14.4364H63.8233V6.23934L73.0411 14.4575V0.00909164H70.6119ZM2.0613 19.4689V19.9278H0.489948V21.2852H0V18.1384H2.0613V18.5969H0.489948V19.4689H2.0613ZM12.2458 18.1417C12.6855 18.1417 13.1161 18.3442 13.4041 18.6526L13.0934 18.9391C12.8713 18.7231 12.521 18.5868 12.2458 18.5868H12.2055C11.935 18.5868 11.5755 18.7144 11.5755 19.0318C11.5755 19.2693 11.8016 19.362 12.1655 19.4103L12.4587 19.4456C13.0846 19.5209 13.5067 19.7583 13.5067 20.3572C13.5067 20.9303 12.9867 21.2823 12.3304 21.287H12.3077C11.6862 21.287 11.238 21.0005 11.0203 20.6394L11.3318 20.3528C11.4733 20.6088 11.8108 20.8419 12.3077 20.8419H12.3301C12.7339 20.8379 13.0267 20.6568 13.0267 20.3572C13.0267 20.0492 12.7786 19.9347 12.3967 19.886L12.1036 19.8511C11.4953 19.7801 11.0958 19.5467 11.0958 19.0449C11.0958 18.49 11.5979 18.1464 12.2055 18.1417H12.2458ZM18.9464 21.2852V19.9278H17.4879V21.2852H16.9987V18.1384H17.4879V19.4693H18.9464V18.1384H19.4352V21.2852H18.9464ZM24.01 20.8266V21.2855H23.5219V20.8266L23.5215 18.1384H24.0104V18.5973L24.01 20.8266ZM30.9807 19.7165C30.9809 19.9226 30.9402 20.1268 30.8608 20.3172C30.7814 20.5077 30.665 20.6808 30.5181 20.8265C30.3712 20.9723 30.1968 21.0878 30.0048 21.1666C29.8129 21.2454 29.6072 21.2858 29.3994 21.2855C29.192 21.2856 28.9866 21.245 28.795 21.1661C28.6035 21.0872 28.4295 20.9715 28.283 20.8258C28.1366 20.68 28.0206 20.507 27.9417 20.3166C27.8628 20.1263 27.8226 19.9223 27.8233 19.7165C27.8229 19.5108 27.8634 19.3071 27.9424 19.1169C28.0214 18.9267 28.1373 18.7538 28.2837 18.6081C28.43 18.4624 28.6038 18.3468 28.7952 18.2677C28.9866 18.1887 29.1918 18.1478 29.3991 18.1475C29.8184 18.1477 30.2205 18.313 30.5171 18.6072C30.8137 18.9014 30.9804 19.3004 30.9807 19.7165ZM28.3012 19.7165C28.3012 20.371 28.7845 20.8365 29.3994 20.8365C30.0151 20.8365 30.5025 20.371 30.5025 19.7165C30.5025 19.0664 30.0151 18.5958 29.3994 18.5958C28.7845 18.5958 28.3012 19.0664 28.3012 19.7165ZM52.0781 18.1384C52.9254 18.1384 53.4468 18.6151 53.4468 19.2984C53.4468 19.7972 53.1566 20.1434 52.6993 20.3009C52.8576 20.3772 53.0027 20.5347 53.1977 20.8357L53.4915 21.2852H52.9437L52.7081 20.9255C52.4541 20.5347 52.3416 20.4674 52.0147 20.4579H51.5164V21.2852H51.0275V18.1384H52.0781ZM51.5164 20.0038H52.1188C52.5952 20.0038 52.9844 19.7929 52.9844 19.2984C52.9844 18.822 52.5948 18.5969 52.1188 18.5969H51.5164V20.0041V20.0038ZM60.3413 19.7129C60.3414 19.919 60.3006 20.1232 60.2212 20.3137C60.1417 20.5042 60.0252 20.6773 59.8782 20.823C59.7313 20.9688 59.5569 21.0844 59.3649 21.1632C59.1729 21.242 58.9671 21.2825 58.7593 21.2823C58.5518 21.2825 58.3462 21.242 58.1545 21.1631C57.9628 21.0843 57.7886 20.9686 57.6421 20.8228C57.4955 20.6769 57.3794 20.5038 57.3005 20.3134C57.2216 20.1229 57.1813 19.9188 57.1821 19.7129C57.1817 19.507 57.2222 19.3032 57.3013 19.1129C57.3804 18.9226 57.4964 18.7496 57.6429 18.6039C57.7894 18.4581 57.9634 18.3424 58.155 18.2634C58.3465 18.1844 58.5519 18.1437 58.7593 18.1435C59.1787 18.1438 59.5809 18.3092 59.8775 18.6035C60.1741 18.8977 60.3409 19.2967 60.3413 19.7129ZM57.6607 19.7129C57.6607 20.3674 58.1437 20.8343 58.7593 20.8343C59.375 20.8343 59.8631 20.3678 59.8631 19.7129C59.8631 19.062 59.3753 18.5915 58.7593 18.5915C58.1437 18.5915 57.6607 19.062 57.6607 19.7129ZM66.5377 19.9289C66.5377 20.8005 65.9689 21.2804 65.2613 21.2804C64.5584 21.2804 63.9897 20.8005 63.9897 19.9292V18.1388H64.4734V19.9161C64.4734 20.547 64.8179 20.8274 65.2613 20.8274C65.7095 20.8274 66.0543 20.547 66.0543 19.9161V18.1388H66.5373V19.9292L66.5377 19.9289ZM71.5797 18.1388C72.4266 18.1388 72.9751 18.6151 72.9751 19.3213C72.9751 20.0314 72.4266 20.503 71.5797 20.503H71.0447V21.2848H70.5558V18.1388H71.5797ZM71.6112 20.0492C72.0869 20.0492 72.5127 19.838 72.5127 19.3213C72.5127 18.822 72.0869 18.5969 71.6112 18.5969H71.0447V20.0492H71.6112ZM7.59914 21.2844H8.11437L6.52946 18.1464L4.94382 21.2844H5.45979L5.75845 20.6936H7.30048L7.59914 21.2844ZM5.98895 20.2372L6.5291 19.1689L7.06925 20.2372H5.98895ZM36.6296 18.1417H36.5288V20.2114L34.1872 18.1399V21.2859H34.6764V19.2234L37.0176 21.2863V18.1406L36.6296 18.1417ZM45.751 19.4671V19.9521H46.8342C46.7301 20.4765 46.2918 20.8306 45.7554 20.8306C45.1397 20.8306 44.6567 20.3645 44.6567 19.7092C44.6567 19.0584 45.1401 18.5882 45.7554 18.5882C46.1398 18.5882 46.4732 18.7715 46.6707 19.0667L47.0585 18.822C46.9135 18.6118 46.7191 18.4399 46.4921 18.3209C46.2651 18.202 46.0124 18.1397 45.7557 18.1395C45.5482 18.1397 45.3428 18.1805 45.1513 18.2596C44.9597 18.3386 44.7857 18.4543 44.6392 18.6001C44.4927 18.7458 44.3766 18.9188 44.2975 19.1091C44.2183 19.2995 44.1778 19.5034 44.1781 19.7092C44.1774 19.9152 44.2176 20.1193 44.2966 20.3098C44.3755 20.5003 44.4916 20.6734 44.6382 20.8193C44.7848 20.9651 44.959 21.0807 45.1508 21.1596C45.3426 21.2384 45.5481 21.2789 45.7557 21.2786C45.9635 21.2788 46.1692 21.2384 46.3612 21.1595C46.5532 21.0807 46.7276 20.9652 46.8745 20.8194C47.0214 20.6736 47.1379 20.5005 47.2173 20.31C47.2967 20.1196 47.3375 19.9154 47.3373 19.7092C47.3373 19.626 47.3227 19.5467 47.3098 19.4671H45.751Z" fill="#0A0620"/>
</svg>
