<svg width="128" height="18" viewBox="0 0 128 18" fill="none" xmlns="http://www.w3.org/2000/svg">
<path d="M121.709 17.05C119.978 17.05 118.57 16.522 117.485 15.466C116.414 14.41 115.879 12.9874 115.879 11.198V11.022C115.879 9.26203 116.414 7.83203 117.485 6.73203C118.57 5.63203 119.942 5.08203 121.599 5.08203C123.154 5.08203 124.444 5.56603 125.471 6.53403C126.512 7.50203 127.033 8.95403 127.033 10.89V11.66H118.607C118.651 12.76 118.937 13.6034 119.465 14.19C120.008 14.7767 120.778 15.07 121.775 15.07C123.33 15.07 124.21 14.4834 124.415 13.31H126.989C126.798 14.5274 126.241 15.4587 125.317 16.104C124.408 16.7347 123.205 17.05 121.709 17.05ZM124.393 9.87803C124.246 7.97136 123.315 7.01803 121.599 7.01803C120.807 7.01803 120.147 7.2747 119.619 7.78803C119.106 8.2867 118.783 8.98337 118.651 9.87803H124.393Z" fill="#0A0620"/>
<path d="M109.609 17.05C107.922 17.05 106.529 16.5294 105.429 15.488C104.343 14.432 103.801 13.0094 103.801 11.22V11.044C103.801 9.26937 104.351 7.83203 105.451 6.73203C106.565 5.63203 107.951 5.08203 109.609 5.08203C111.017 5.08203 112.212 5.43403 113.195 6.13803C114.177 6.82737 114.735 7.9127 114.867 9.39403H112.293C112.073 7.94203 111.193 7.21603 109.653 7.21603C108.729 7.21603 107.973 7.55336 107.387 8.22803C106.815 8.9027 106.529 9.8267 106.529 11V11.176C106.529 12.4227 106.807 13.376 107.365 14.036C107.937 14.6814 108.721 15.004 109.719 15.004C110.452 15.004 111.075 14.7914 111.589 14.366C112.102 13.9407 112.403 13.332 112.491 12.54H114.933C114.845 13.8747 114.317 14.96 113.349 15.796C112.381 16.632 111.134 17.05 109.609 17.05Z" fill="#0A0620"/>
<path d="M91.7617 5.32403H94.4237V7.15003C94.7171 6.5487 95.1791 6.05736 95.8097 5.67603C96.4551 5.28003 97.2324 5.08203 98.1417 5.08203C99.359 5.08203 100.32 5.45603 101.024 6.20403C101.728 6.93737 102.08 8.0667 102.08 9.59203V16.83H99.4177V9.83403C99.4177 8.95403 99.2344 8.31603 98.8677 7.92003C98.5011 7.50936 97.9217 7.30403 97.1297 7.30403C96.3377 7.30403 95.6851 7.54603 95.1717 8.03003C94.6731 8.49937 94.4237 9.17403 94.4237 10.054V16.83H91.7617V5.32403Z" fill="#0A0620"/>
<path d="M83.143 17.05C82.0136 17.05 81.0896 16.7714 80.371 16.214C79.6523 15.642 79.293 14.784 79.293 13.64C79.293 12.3787 79.8283 11.4547 80.899 10.868C81.9843 10.2814 83.4143 9.98803 85.189 9.98803H86.619V9.39403C86.619 8.58737 86.465 8.0007 86.157 7.63403C85.849 7.26737 85.3063 7.08403 84.529 7.08403C83.2236 7.08403 82.4903 7.68537 82.329 8.88803H79.755C79.8723 7.61203 80.3783 6.6587 81.273 6.02803C82.1676 5.39736 83.3043 5.08203 84.683 5.08203C87.7483 5.08203 89.281 6.4827 89.281 9.28403V16.83H86.663V15.422C85.8123 16.5074 84.639 17.05 83.143 17.05ZM83.781 15.136C84.6316 15.136 85.3136 14.9307 85.827 14.52C86.355 14.1094 86.619 13.5374 86.619 12.804V11.66H85.255C83.0403 11.66 81.933 12.2834 81.933 13.53C81.933 14.6007 82.549 15.136 83.781 15.136Z" fill="#0A0620"/>
<path d="M74.7969 0H77.4589V16.83H74.7969V0Z" fill="#0A0620"/>
<path d="M66.1156 17.05C64.9863 17.05 64.0623 16.7714 63.3436 16.214C62.625 15.642 62.2656 14.784 62.2656 13.64C62.2656 12.3787 62.801 11.4547 63.8716 10.868C64.957 10.2814 66.387 9.98803 68.1616 9.98803H69.5916V9.39403C69.5916 8.58737 69.4376 8.0007 69.1296 7.63403C68.8216 7.26737 68.279 7.08403 67.5016 7.08403C66.1963 7.08403 65.463 7.68537 65.3016 8.88803H62.7276C62.845 7.61203 63.351 6.6587 64.2456 6.02803C65.1403 5.39736 66.277 5.08203 67.6556 5.08203C70.721 5.08203 72.2536 6.4827 72.2536 9.28403V16.83H69.6356V15.422C68.785 16.5074 67.6116 17.05 66.1156 17.05ZM66.7536 15.136C67.6043 15.136 68.2863 14.9307 68.7996 14.52C69.3276 14.1094 69.5916 13.5374 69.5916 12.804V11.66H68.2276C66.013 11.66 64.9056 12.2834 64.9056 13.53C64.9056 14.6007 65.5216 15.136 66.7536 15.136Z" fill="#0A0620"/>
<path d="M49.6953 1.09961H55.3273C58.7593 1.09961 60.4753 2.46361 60.4753 5.19161V5.27961C60.4753 6.99561 59.6466 8.11028 57.9893 8.62361C59.06 8.85828 59.852 9.27628 60.3653 9.87761C60.8786 10.4643 61.1353 11.2856 61.1353 12.3416V12.4296C61.1353 13.8816 60.6733 14.9816 59.7493 15.7296C58.8253 16.4629 57.4906 16.8296 55.7453 16.8296H49.6953V1.09961ZM55.3933 14.7396C57.3 14.7396 58.2533 13.9036 58.2533 12.2316V12.1436C58.2533 11.3076 58.0113 10.6916 57.5273 10.2956C57.0433 9.89961 56.266 9.70161 55.1953 9.70161H52.5553V14.7396H55.3933ZM54.9753 7.72161C55.9286 7.72161 56.6106 7.53828 57.0213 7.17161C57.4466 6.80494 57.6593 6.21828 57.6593 5.41161V5.32361C57.6593 4.57561 57.4393 4.03294 56.9993 3.69561C56.5593 3.35828 55.87 3.18961 54.9313 3.18961H52.5553V7.72161H54.9753Z" fill="#0A0620"/>
<path d="M26.3203 5.32422H29.1583L31.4463 13.6402L33.8883 5.32422H36.1103L38.3543 13.6402L40.7523 5.32422H43.3483L39.7403 16.8302H37.0343L34.9003 9.08622L32.5683 16.8302H29.8403L26.3203 5.32422Z" fill="#0A0620"/>
<path d="M20.5527 17.05C18.822 17.05 17.414 16.522 16.3287 15.466C15.258 14.41 14.7227 12.9874 14.7227 11.198V11.022C14.7227 9.26203 15.258 7.83203 16.3287 6.73203C17.414 5.63203 18.7853 5.08203 20.4427 5.08203C21.9973 5.08203 23.288 5.56603 24.3147 6.53403C25.356 7.50203 25.8767 8.95403 25.8767 10.89V11.66H17.4507C17.4947 12.76 17.7807 13.6034 18.3087 14.19C18.8513 14.7767 19.6213 15.07 20.6187 15.07C22.1733 15.07 23.0533 14.4834 23.2587 13.31H25.8327C25.642 14.5274 25.0847 15.4587 24.1607 16.104C23.2513 16.7347 22.0487 17.05 20.5527 17.05ZM23.2367 9.87803C23.09 7.97136 22.1587 7.01803 20.4427 7.01803C19.6507 7.01803 18.9907 7.2747 18.4627 7.78803C17.9493 8.2867 17.6267 8.98337 17.4947 9.87803H23.2367Z" fill="#0A0620"/>
<path d="M0 1.09961H3.498L10.12 12.4736V1.09961H12.782V16.8296H9.746L2.662 4.77361V16.8296H0V1.09961Z" fill="#0A0620"/>
</svg>
