<svg width="150" height="18" viewBox="0 0 150 18" fill="none" xmlns="http://www.w3.org/2000/svg">
<path d="M5.52616 2.29065V16.2686H3.79415V2.29065H0V0.65007H9.32031V2.29065H5.52616Z" fill="black"/>
<path d="M14.8044 0.650146V13.2719C14.8044 14.9125 14.6622 16.4058 13.2807 17.3251C12.6762 17.7213 12.0413 17.8838 11.3607 17.8838C10.7258 17.8838 9.72016 17.7416 8.57227 16.7359L9.53223 15.3798C10.0706 15.8725 10.5836 16.2483 11.3353 16.2483C12.016 16.2483 12.4121 15.9182 12.6001 15.6642C12.9962 15.1715 13.0673 14.3538 13.0673 13.277V0.650146H14.8044Z" fill="black"/>
<path d="M36.2335 4.09897C35.7408 3.60629 34.9891 3.02218 34.1968 2.64632C33.379 2.27046 32.4191 2.03682 31.5048 2.03682C27.8986 2.03682 25.2269 4.93703 25.2269 8.54326C25.2269 12.7844 28.6706 14.9126 31.5251 14.9126C32.5816 14.9126 33.6076 14.6078 34.4304 14.1862C35.3193 13.7393 35.9542 13.1552 36.2335 12.8758V15.0294C34.5015 16.2687 32.6984 16.5531 31.5251 16.5531C26.8929 16.5531 23.4492 13.0434 23.4492 8.52294C23.4492 3.86533 26.9386 0.39624 31.6216 0.39624C32.5562 0.39624 34.3593 0.513062 36.2335 1.94031V4.09897Z" fill="black"/>
<path d="M38.5859 8.47723C38.5859 3.81961 42.2176 0.39624 46.7126 0.39624C51.2077 0.39624 54.8393 3.81453 54.8393 8.47723C54.8393 13.1145 51.2331 16.5531 46.7126 16.5531C42.1922 16.5531 38.5859 13.1094 38.5859 8.47723ZM40.3687 8.47723C40.3687 12.0581 43.2029 14.9176 46.7126 14.9176C50.2274 14.9176 53.0565 12.0631 53.0565 8.47723C53.0565 4.89132 50.2274 2.03682 46.7126 2.03682C43.1978 2.03682 40.3687 4.89132 40.3687 8.47723Z" fill="black"/>
<path d="M59.7683 0.650146V14.6281H64.0755V16.2686H58.0312V0.650146H59.7683Z" fill="black"/>
<path d="M68.15 0.650146V14.6281H72.4571V16.2686H66.418V0.650146H68.15Z" fill="black"/>
<path d="M82.9099 2.29072H76.5406V6.92802H82.722V8.56352H76.5406V14.6281H82.9099V16.2686H74.8086V0.650146H82.9099V2.29072Z" fill="black"/>
<path d="M98.0331 4.09897C97.5405 3.60629 96.7938 3.02218 95.9964 2.64632C95.1786 2.27046 94.2187 2.03682 93.3044 2.03682C89.6982 2.03682 87.0316 4.93703 87.0316 8.54326C87.0316 12.7844 90.4753 14.9126 93.3298 14.9126C94.3863 14.9126 95.4123 14.6078 96.2351 14.1862C97.124 13.7393 97.7589 13.1552 98.0382 12.8758V15.0294C96.3062 16.2687 94.5031 16.5531 93.3349 16.5531C88.6976 16.5531 85.2539 13.0434 85.2539 8.52294C85.2539 3.86533 88.7433 0.39624 93.4263 0.39624C94.3609 0.39624 96.164 0.513062 98.0382 1.94031V4.09897H98.0331Z" fill="black"/>
<path d="M105.066 2.29072V16.2686H103.329V2.29072H99.5352V0.650146H108.855V2.29072H105.066Z" fill="black"/>
<path d="M112.939 0.650146V16.2686H111.207V0.650146H112.939Z" fill="black"/>
<path d="M116.125 8.47723C116.125 3.81961 119.757 0.39624 124.252 0.39624C128.752 0.39624 132.373 3.81453 132.373 8.47723C132.373 13.1145 128.767 16.5531 124.252 16.5531C119.736 16.5531 116.125 13.1094 116.125 8.47723ZM117.908 8.47723C117.908 12.0581 120.742 14.9176 124.252 14.9176C127.766 14.9176 130.596 12.0631 130.596 8.47723C130.596 4.89132 127.761 2.03682 124.252 2.03682C120.742 2.03682 117.908 4.89132 117.908 8.47723Z" fill="black"/>
<path d="M135.57 16.2737V0L147.75 12.7589V0.650135H149.482V16.9696L137.307 4.21065V16.2686H135.57V16.2737Z" fill="black"/>
</svg>
