<svg width="161" height="11" viewBox="0 0 161 11" fill="none" xmlns="http://www.w3.org/2000/svg">
<path d="M12.8579 9.90174H10.9781L10.9797 2.02207L6.25677 8.54884L1.50464 1.88419V9.90174H-0.328125V0.326416H2.4233L6.25511 5.74153L10.0986 0.326416H12.8579V9.90174Z" fill="black"/>
<path d="M27.1748 9.90174H25.1554L24.0753 7.84692H17.7595L16.6806 9.90174H14.6602L19.7805 0.326416H22.0561L27.1748 9.90174ZM23.1596 6.16585L20.9261 1.92425L18.6783 6.16585H23.1596Z" fill="black"/>
<path d="M40.044 9.90174H37.943L35.4825 6.38383H30.8149V9.90174H28.9805V0.326416H36.5763C37.5733 0.326416 38.3681 0.600686 38.9594 1.15126C39.5488 1.70165 39.8443 2.43901 39.8443 3.36168C39.8443 4.95101 39.0656 5.9224 37.5076 6.27401L40.044 9.90174ZM36.3009 4.70148C37.4118 4.70148 37.9665 4.26662 37.9665 3.39435C37.9665 2.47002 37.3751 2.00749 36.1931 2.00749H30.8149V4.70148H36.3007H36.3009Z" fill="black"/>
<path d="M53.9939 9.90174H51.6279L47.1469 5.05013L44.4738 7.00584V9.90174H42.6406V0.326416H44.4738V5.01321L50.8756 0.326416H53.5993L48.5631 3.99383L53.9939 9.90174Z" fill="black"/>
<path d="M69.9598 2.00694H62.0298V4.07984H67.5458V5.76091H62.0298V9.90174H60.1953V0.326416H69.9598V2.00694Z" fill="black"/>
<path d="M83.7446 5.09175C83.7446 6.66004 83.0881 7.93763 81.7732 8.92139C80.6523 9.76359 79.2533 10.1839 77.5715 10.1839C75.8902 10.1839 74.4849 9.76377 73.3555 8.92139C72.0393 7.94649 71.3828 6.67056 71.3828 5.09175C71.3828 3.53397 72.0452 2.26726 73.3699 1.29236C74.5303 0.430236 75.9323 0 77.5715 0C79.2021 0 80.5969 0.430236 81.7575 1.29236C83.0824 2.27723 83.7446 3.54579 83.7446 5.09175ZM81.8347 5.08288C81.8347 4.09488 81.4373 3.28038 80.6409 2.64232C79.8443 2.00315 78.8195 1.68089 77.563 1.68089C76.2992 1.68089 75.2654 2.00444 74.4635 2.64989C73.6641 3.29496 73.264 4.10503 73.264 5.08288C73.264 6.10356 73.6554 6.92858 74.4417 7.55779C75.2263 8.18662 76.2671 8.50113 77.563 8.50113C78.8502 8.50113 79.8836 8.18662 80.6639 7.55779C81.4443 6.92877 81.8347 6.10356 81.8347 5.08288Z" fill="black"/>
<path d="M97.4484 9.90174H95.3474L92.8869 6.38383H88.221V9.90174H86.3867V0.326416H93.9807C94.9777 0.326416 95.7742 0.600686 96.3639 1.15126C96.9549 1.70165 97.2503 2.43901 97.2503 3.36168C97.2503 4.95101 96.47 5.9224 94.9126 6.27401L97.4484 9.90174ZM93.7053 4.70148C94.8162 4.70148 95.3709 4.26662 95.3709 3.39435C95.3709 2.47002 94.7799 2.00749 93.5992 2.00749H88.221V4.70148H93.7053Z" fill="black"/>
<path d="M113.234 9.90174H111.355V2.02207L106.635 8.54884L101.881 1.89601V9.90174H100.047V0.326416H102.8L106.633 5.74153L110.475 0.326416H113.234V9.90174Z" fill="black"/>
<path d="M126.557 9.90174H116.441V0.326416H126.206V2.00749H118.276V4.08003H123.791V5.76091H118.276V8.22086H126.557V9.90174Z" fill="black"/>
<path d="M138.018 9.90174H128.926V0.326416H130.76V8.22086H138.018V9.90174Z" fill="black"/>
<path d="M149.099 9.90174H140.008V0.326416H141.841V8.22086H149.099V9.90174Z" fill="black"/>
<path d="M161.198 9.90174H151.082V0.326416H160.847V2.00749H152.915V4.08003H158.432V5.76091H152.915V8.22086H161.198V9.90174Z" fill="black"/>
</svg>
