<svg width="136" height="20" viewBox="0 0 136 20" fill="none" xmlns="http://www.w3.org/2000/svg">
<path d="M73.27 14.6733C73.27 15.616 72.4543 16.3821 71.4527 16.3821C70.4512 16.3821 69.6364 15.616 69.6364 14.6733V8.26465H66.1406V14.6733C66.1406 17.5434 68.5238 19.877 71.4527 19.877C72.7658 19.8808 74.0344 19.4019 75.0174 18.5315C76.0001 19.4019 77.2685 19.8808 78.5813 19.877C81.5102 19.877 83.8934 17.5434 83.8934 14.6733V8.26465H80.3985V14.6733C80.3985 15.616 79.5836 16.3821 78.5813 16.3821C77.5789 16.3821 76.7649 15.616 76.7649 14.6733V8.26465H73.27V14.6733Z" fill="#0A0620"/>
<path d="M3.6 8.26146H9.13833C12.021 8.26146 14.3655 10.8767 14.3655 14.0916C14.3655 17.3064 12.0193 19.9217 9.13833 19.9217H0V16.4268H9.13833C10.0776 16.4268 10.8706 15.3572 10.8706 14.0916C10.8706 12.826 10.0776 11.7563 9.13833 11.7563H0V0.0515137H3.6V8.26146Z" fill="#0A0620"/>
<path d="M21.1491 11.7595C20.2106 11.7595 19.4176 12.8292 19.4176 14.0948C19.4176 15.3604 20.2106 16.43 21.1491 16.43H26.8127C27.7512 16.43 28.5442 15.3604 28.5442 14.0948C28.5442 12.8292 27.7512 11.7595 26.8127 11.7595H21.1491ZM26.8127 19.9249H21.1491C18.2672 19.9249 15.9219 17.3096 15.9219 14.0948C15.9219 10.8799 18.2672 8.26465 21.1491 8.26465H26.8127C29.6945 8.26465 32.0399 10.8799 32.0399 14.0948C32.0399 17.3096 29.6945 19.9249 26.8127 19.9249Z" fill="#0A0620"/>
<path d="M38.8248 11.7595C37.8855 11.7595 37.0925 12.8292 37.0925 14.0948C37.0925 15.3604 37.8855 16.43 38.8248 16.43H44.4885C45.4269 16.43 46.2199 15.3604 46.2199 14.0948C46.2199 12.8292 45.4269 11.7595 44.4885 11.7595H38.8248ZM44.4859 19.9249H38.8248C35.9422 19.9249 33.5977 17.3096 33.5977 14.0948C33.5977 10.8799 35.9422 8.26465 38.8248 8.26465H44.4885C47.3703 8.26465 49.7148 10.8799 49.7148 14.0948C49.7148 17.3096 47.3678 19.9249 44.4859 19.9249Z" fill="#0A0620"/>
<path d="M90.6764 11.7595C89.7379 11.7595 88.945 12.8292 88.945 14.0948C88.945 15.3604 89.7379 16.43 90.6764 16.43H96.3401C97.2785 16.43 98.0723 15.3604 98.0723 14.0948C98.0723 12.8292 97.2785 11.7595 96.3401 11.7595H90.6764ZM96.3401 19.9249H90.6764C87.7946 19.9249 85.4492 17.3096 85.4492 14.0948C85.4492 10.8799 87.7946 8.26465 90.6764 8.26465H96.3401C99.2219 8.26465 101.567 10.8799 101.567 14.0948C101.567 17.3096 99.2244 19.9249 96.3401 19.9249Z" fill="#0A0620"/>
<path d="M108.352 11.7595C107.414 11.7595 106.62 12.8292 106.62 14.0948C106.62 15.3604 107.414 16.43 108.352 16.43H114.016C114.954 16.43 115.747 15.3604 115.747 14.0948C115.747 12.8292 114.954 11.7595 114.016 11.7595H108.352ZM114.016 19.9249H108.352C105.47 19.9249 103.125 17.3096 103.125 14.0948C103.125 10.8799 105.47 8.26465 108.352 8.26465H114.016C116.898 8.26465 119.243 10.8799 119.243 14.0948C119.243 17.3096 116.898 19.9249 114.016 19.9249Z" fill="#0A0620"/>
<path d="M131.566 0H135.166V11.704H126.028C125.089 11.704 124.296 12.7736 124.296 14.0392C124.296 15.3048 125.089 16.3745 126.028 16.3745H135.165V19.8694H126.028C123.145 19.8694 120.801 17.2541 120.801 14.0392C120.801 10.8244 123.145 8.20911 126.028 8.20911H131.565L131.566 0Z" fill="#0A0620"/>
<path d="M59.9807 11.4997H64.5923V8.26465H51.2695V11.4997H56.1301V19.9249H59.9807V11.4997Z" fill="#0A0620"/>
</svg>
