<svg width="104" height="30" viewBox="0 0 104 30" fill="none" xmlns="http://www.w3.org/2000/svg">
<path d="M47.3325 22.4675H50.9238V15.0375C50.9238 11.1125 48.42 9.02875 45.4075 9.02875C43.4138 9.02875 41.9075 9.89375 40.8225 11.0913H40.335C39.5163 10.0263 38.0987 9.02875 35.995 9.02875C34.0863 9.02875 32.5613 9.87125 31.7638 10.8475H31.2762V9.40625H27.9313V22.4675H31.5V15.6375C31.5 13.3075 32.1875 12.51 34.5788 12.51C36.97 12.51 37.6338 13.3075 37.6338 15.6375V22.4663H41.2262V15.6375C41.2262 13.3075 41.89 12.51 44.2825 12.51C46.6763 12.51 47.3387 13.3075 47.3387 15.6375L47.3337 22.4663L47.3325 22.4675ZM13.625 20.5975C12.9838 20.1325 12.695 19.445 12.695 18.4038C12.695 17.095 13.095 15.4825 13.7587 14.7888C14.2237 14.3225 14.8875 14.1013 15.7962 14.1013C17.0812 14.1013 18.6537 14.4388 19.3175 15.1213C19.7612 15.565 19.9613 16.185 19.9613 17.05C19.9613 18.2925 19.6062 20.0438 18.83 20.775C18.3875 21.175 17.79 21.3513 16.9487 21.3513C15.7987 21.3513 14.3538 21.0838 13.625 20.5975ZM19.275 23.3475L19.1187 24.545L22.4613 24.9575L24.045 12.0163L20.7038 11.605L20.5475 12.86H20.1613C19.6613 11.9738 18.3212 10.775 15.7962 10.775C12.275 10.775 9.68375 13.37 9.2175 16.9163C9.1743 17.2625 9.15218 17.6111 9.15125 17.96C9.15125 21.3513 11.455 24.1463 15.0425 24.545C15.2425 24.5638 15.4412 24.57 15.6413 24.5675C17.1475 24.5675 18.2775 23.925 18.8538 23.3488H19.2738L19.275 23.3475ZM94.8875 19.5175C92.2075 19.5175 91.3213 18.6313 91.3213 15.9488C91.3213 13.265 92.2087 12.3525 94.8875 12.3525C97.5675 12.3525 98.4538 13.2613 98.4538 15.9488C98.4538 18.635 97.5675 19.5175 94.8875 19.5175ZM77.7 19.5175C75.0188 19.5175 74.1338 18.6313 74.1338 15.9488C74.1338 13.265 75.0187 12.3525 77.6987 12.3525C80.3787 12.3525 81.2663 13.2613 81.2663 15.9488C81.2663 18.635 80.3787 19.5175 77.6987 19.5175H77.7ZM60.9537 19.5175C58.275 19.5175 57.3888 18.6313 57.3888 15.9488C57.3888 13.265 58.275 12.3525 60.9537 12.3525C63.6325 12.3525 64.5212 13.2613 64.5212 15.9488C64.5212 18.635 63.6337 19.5175 60.9537 19.5175ZM4.1775 5L2 22.4413L5.555 22.875L7.6975 5.4325L4.1775 5ZM98.6087 21.2038V22.4663H101.952V9.4075H98.6087V10.6725H98.1213C97.5888 9.9625 96.2387 9.03125 94.4175 9.03125C90.43 9.03125 87.7075 12.065 87.7075 15.95C87.7075 19.8338 90.4313 22.8463 94.4175 22.8463C96.235 22.8463 97.585 21.915 98.1213 21.205L98.6087 21.2038ZM60.9537 9.03C56.5237 9.03 53.7788 12.0638 53.7788 15.9488C53.7788 19.8325 56.5237 22.845 60.9537 22.845C65.3837 22.845 68.1375 19.8288 68.1375 15.9488C68.1375 12.0675 65.39 9.03 60.9537 9.03ZM81.465 21.2038V22.4663H84.8088V5.15H81.2663V10.6713H80.7787C80.2475 9.96125 79.05 9.03 77.235 9.03C73.2475 9.03 70.5225 12.0638 70.5225 15.9488C70.5225 19.8325 73.2475 22.845 77.235 22.845C79.05 22.845 80.4675 21.9138 80.9775 21.2038H81.465Z" fill="black"/>
</svg>
