<svg width="111" height="16" viewBox="0 0 111 16" fill="none" xmlns="http://www.w3.org/2000/svg">
<g clip-path="url(#clip0_1_2702)">
<path d="M108.651 0.349345V2.39301C107.514 0.868372 105.791 0 103.661 0C99.5103 0 96.3442 3.45353 96.3442 8.02246C96.3442 12.5914 99.5103 16 103.661 16C105.791 16 107.514 15.1316 108.651 13.6095V15.6507H111V0.349345H108.651ZM103.723 13.6819C100.851 13.6819 98.7949 11.3212 98.7949 8.01996C98.7949 4.71865 100.87 2.31566 103.723 2.31566C106.576 2.31566 108.735 4.72115 108.735 8.01996C108.735 11.3188 106.617 13.6819 103.723 13.6819Z" fill="black"/>
<path d="M93.9101 0.349365H90.7865L84.4774 7.5309V0.349365H82.0239V15.6507H84.4774V8.29447L90.9357 15.6507H94.2266L87.2943 7.80788L93.9101 0.349365Z" fill="black"/>
<path d="M75.5023 0.349365H73.0488V15.6507H75.5023V0.349365Z" fill="black"/>
<path d="M64.1784 11.5883L56.3585 0.349365H53.8213V15.6507H56.2316V4.29447L64.0539 15.6507H66.5911V0.349365H64.1784V11.5883Z" fill="black"/>
<path d="M41.1166 0C36.7985 0 33.4834 3.45353 33.4834 8C33.4834 12.5465 36.7961 16 41.1166 16C45.437 16 48.7497 12.5465 48.7497 8C48.7497 3.45353 45.4345 0 41.1166 0ZM41.1166 13.6844C38.1389 13.6844 35.9368 11.2788 35.9368 8C35.9368 4.72115 38.1389 2.31566 41.1166 2.31566C44.0941 2.31566 46.2963 4.72115 46.2963 8C46.2963 11.2788 44.0941 13.6844 41.1166 13.6844Z" fill="black"/>
<path d="M31.074 0.349365H27.9503L21.6385 7.5309V0.349365H19.1851V15.6507H21.6385V8.29447L28.0964 15.6507H31.3875L24.4582 7.80788L31.074 0.349365Z" fill="black"/>
<path d="M7.61159 0C3.31272 0 0 3.47598 0 8C0 12.524 3.31272 15.9576 7.61159 15.9576C9.68683 15.9576 11.47 15.2788 12.686 14.0786V10.8446C11.6592 12.5939 9.79211 13.6644 7.77914 13.6644C5.07679 13.6644 3.00155 11.8154 2.53241 9.16284H12.686V2.12102C11.5107 0.743605 9.62457 0 7.61159 0ZM2.52763 6.81972C2.97283 4.13724 4.93078 2.27324 7.48473 2.27324C10.0386 2.27324 11.8243 4.21709 12.0349 6.81972H2.52763Z" fill="black"/>
</g>
<defs>
<clipPath id="clip0_1_2702">
<rect width="111" height="16" fill="white"/>
</clipPath>
</defs>
</svg>
