<svg width="72" height="18" viewBox="0 0 72 18" fill="none" xmlns="http://www.w3.org/2000/svg">
<path d="M4.42092 16.2353C4.00845 15.8143 3.9173 14.3554 3.9173 11.0006L3.90818 6.93798C3.90818 3.37381 3.90818 2.73882 3.95376 2.00822C3.99933 1.20935 4.18164 0.822434 4.84478 0.708635C5.09429 0.668211 5.34634 0.645389 5.59907 0.64036C5.69022 0.64036 5.78137 0.594844 5.78137 0.5038C5.78137 0.364968 5.66744 0.319445 5.41676 0.319445C4.93077 0.319445 3.95175 0.353738 3.38176 0.373714L3.37796 0.373844L3.37473 0.373963C3.14397 0.382034 2.98168 0.387732 2.9488 0.387732C2.92049 0.387732 2.81031 0.383527 2.64492 0.377165L2.64225 0.377082C2.14092 0.357856 1.13766 0.319445 0.36689 0.319445C0.11622 0.319445 0 0.364968 0 0.5038C0 0.594844 0.0934313 0.64036 0.184585 0.64036C0.445146 0.639582 0.70524 0.662432 0.961663 0.708635C1.71595 0.870234 1.89826 1.23212 1.94384 2.00822C1.98941 2.73882 1.98941 3.37835 1.98941 6.93798V10.9619C1.98941 13.1514 1.98941 14.954 1.87547 15.9121C1.78432 16.5744 1.6681 17.0774 1.21233 17.1685C0.987959 17.221 0.758991 17.2515 0.528685 17.2595C0.391956 17.2595 0.346379 17.3278 0.346379 17.3961C0.346379 17.5326 0.46032 17.5782 0.71099 17.5782C1.15205 17.5782 1.5497 17.5596 1.92982 17.5418L1.93206 17.5418C2.27975 17.5255 2.61282 17.5099 2.95107 17.5099C4.09183 17.5099 5.16066 17.5461 6.1974 17.5812C7.17372 17.6143 8.12158 17.6464 9.07428 17.6464C10.2866 17.6464 10.355 17.5554 10.5145 17.0319C10.6881 16.2834 10.8024 15.5224 10.8563 14.7559C10.8563 14.5056 10.8563 14.4146 10.7196 14.4146C10.5829 14.4146 10.5373 14.5284 10.5145 14.7104C10.427 15.2062 10.2232 15.6742 9.91972 16.076C9.37052 16.7361 8.36556 16.7588 7.1555 16.7588C5.3803 16.7588 4.78553 16.5995 4.42092 16.2353Z" fill="#0A0620"/>
<path d="M16.0498 10.1334C16.0498 13.42 16.7813 14.8333 17.7634 15.7688C18.8846 16.8203 19.9124 17.0251 21.2159 17.0251C21.8956 17.0213 22.5668 16.8735 23.1852 16.5914C23.8035 16.3093 24.3548 15.8994 24.8027 15.3887C25.8533 14.0868 26.1267 12.1477 26.1267 9.7966V6.93798C26.1267 3.37835 26.1267 2.73882 26.0811 2.00822C26.0356 1.23212 25.8533 0.870234 25.099 0.708635C24.8426 0.662335 24.5825 0.639485 24.3219 0.64036C24.2307 0.64036 24.1396 0.594844 24.1396 0.5038C24.1396 0.364968 24.2535 0.319445 24.5042 0.319445C25.254 0.319445 26.1196 0.355627 26.5906 0.375339C26.6696 0.378645 26.7379 0.381479 26.7922 0.383605C26.8588 0.386202 26.9051 0.387732 26.9266 0.387732C26.9716 0.387732 27.1097 0.381013 27.2993 0.371816L27.302 0.37165L27.3054 0.371484C27.721 0.351328 28.3788 0.319445 28.8454 0.319445C29.0983 0.319445 29.2123 0.364968 29.2123 0.5038C29.2123 0.594844 29.1211 0.64036 29.0299 0.64036C28.8377 0.646848 28.6463 0.669683 28.458 0.708635C27.8404 0.845188 27.6581 1.20935 27.6125 2.00822C27.5669 2.73876 27.5669 3.37373 27.5669 6.93715V9.3801C27.5669 11.845 27.2935 14.583 25.4636 16.208C23.8206 17.6647 22.1069 17.8922 20.7646 17.8922C19.9876 17.8922 17.6791 17.8012 16.0566 16.2718C14.9377 15.1998 14.0695 13.602 14.0695 10.27V6.93798C14.0695 3.37835 14.0695 2.73882 14.0239 2.00822C13.9783 1.23212 13.796 0.870234 13.0417 0.708635C12.7853 0.662335 12.5252 0.639485 12.2646 0.64036C12.1735 0.64036 12.0823 0.594844 12.0823 0.5038C12.0823 0.364968 12.1963 0.319445 12.4469 0.319445C13.1556 0.319445 14.0387 0.351939 14.586 0.372054L14.5891 0.372172L14.5912 0.372255C14.8349 0.381243 15.0112 0.387732 15.0744 0.387732C15.1469 0.387732 15.3652 0.379205 15.6475 0.368176C16.1637 0.347991 16.8939 0.319445 17.3373 0.319445C17.588 0.319445 17.7019 0.364968 17.7019 0.5038C17.7019 0.594844 17.6108 0.64036 17.5196 0.64036C17.3281 0.646987 17.1375 0.669836 16.9499 0.708635C16.3323 0.799679 16.15 1.20935 16.1045 2.00822C16.0566 2.73882 16.0566 3.37381 16.0566 6.93798L16.0498 10.1334Z" fill="#0A0620"/>
<path d="M32.0677 16.4083C32.0677 17.0251 32.0927 17.1161 32.4118 17.2755C33.3739 17.7143 34.424 17.9269 35.4813 17.8968C36.7165 17.8968 37.9493 17.6214 38.9315 16.9386C39.5293 16.5025 40.0165 15.9325 40.354 15.2745C40.6916 14.6164 40.8701 13.8885 40.8753 13.1491C40.8753 11.3238 40.235 9.90812 37.5391 7.78691L36.8988 7.28393C34.7065 5.57239 34.1118 4.75078 34.1118 3.45119C34.1118 1.78517 35.3446 0.804222 36.9216 0.804222C39.0249 0.804222 39.6402 1.7624 39.7769 2.01276C39.9326 2.37512 40.0333 2.7587 40.0754 3.15076C40.0982 3.33283 40.1438 3.44665 40.2578 3.44665C40.3717 3.44665 40.4173 3.28731 40.4173 2.92089C40.4173 1.70411 40.4734 0.979676 40.4976 0.668313C40.5042 0.583117 40.5084 0.528735 40.5084 0.5038C40.5084 0.387723 40.4628 0.342215 40.2805 0.342215C40.0106 0.333089 39.7424 0.294925 39.4807 0.228413C38.7845 0.0675358 38.0713 -0.00887706 37.3568 0.00081917C34.449 0.00081917 32.626 1.66683 32.626 4.10895C32.626 5.66116 33.166 7.07454 35.5884 9.0592L36.6162 9.90359C38.5805 11.5241 39.2437 12.4367 39.2437 14.0117C39.2437 15.4729 38.1704 17.0479 35.9758 17.0479C34.4445 17.0479 32.9382 16.4083 32.5941 14.7195C32.5416 14.4413 32.5187 14.1582 32.5257 13.8752C32.5257 13.6931 32.4801 13.6248 32.3662 13.6248C32.2522 13.6248 32.2067 13.7386 32.1839 13.9889C32.1792 14.0654 32.1715 14.1649 32.1622 14.2845C32.1265 14.7451 32.0677 15.505 32.0677 16.4083Z" fill="#0A0620"/>
<path d="M46.5154 6.93798C46.5154 3.37835 46.5154 2.73882 46.4698 2.00822C46.4242 1.23212 46.1941 0.845192 45.6927 0.731393C45.4609 0.67316 45.223 0.642611 44.984 0.64036C44.8929 0.64036 44.8017 0.594844 44.8017 0.5038C44.8017 0.364968 44.9156 0.319445 45.1663 0.319445C45.7095 0.319445 46.6084 0.354851 47.1115 0.374675C47.3071 0.382384 47.4429 0.387732 47.4748 0.387732C47.5078 0.387732 47.6523 0.381999 47.8575 0.373844C48.3602 0.353896 49.2273 0.319445 49.7126 0.319445C49.9655 0.319445 50.0795 0.364968 50.0795 0.5038C50.0795 0.594844 49.9883 0.64036 49.8971 0.64036C49.7049 0.646848 49.5135 0.669683 49.3252 0.708635C48.7076 0.822434 48.5253 1.20935 48.4797 2.00822C48.4341 2.7387 48.4342 3.37362 48.4342 6.93636V10.9551C48.4342 13.1446 48.4341 14.9471 48.5481 15.9053C48.6165 16.5676 48.7532 17.0706 49.4391 17.1617C49.7581 17.2072 50.239 17.2527 50.3757 17.2527C50.5808 17.2527 50.6492 17.321 50.6492 17.3893C50.6492 17.5031 50.558 17.5713 50.3073 17.5713C49.3424 17.5713 48.255 17.531 47.7515 17.5123C47.5998 17.5067 47.5011 17.5031 47.4748 17.5031C47.4418 17.5031 47.2976 17.5088 47.0927 17.5169C46.5899 17.5369 45.7218 17.5713 45.2347 17.5713C44.984 17.5713 44.8701 17.5258 44.8701 17.3893C44.8701 17.321 44.9156 17.2527 45.1207 17.2527C45.3207 17.2486 45.5198 17.2258 45.7155 17.1844C46.1713 17.0934 46.308 16.5676 46.3992 15.9053C46.5154 14.9471 46.5154 13.1446 46.5154 10.9551V6.93798Z" fill="#0A0620"/>
<path fill-rule="evenodd" clip-rule="evenodd" d="M62.6199 0.00081917C56.3121 0.00081917 53.6162 5.22646 53.6162 8.92264C53.6162 13.0308 56.2209 17.8923 62.4831 17.89C67.9888 17.89 71.5984 13.6703 71.5984 8.55847C71.5984 3.2418 67.7586 0.00081917 62.6199 0.00081917ZM62.4581 0.776921C66.0677 0.776921 69.4039 3.71975 69.4039 9.19802C69.4039 15.8439 65.1539 17.0251 63.0984 17.0274C58.9783 17.0274 55.788 13.6043 55.788 8.28764C55.788 3.28049 58.6433 0.776921 62.4581 0.776921Z" fill="#0A0620"/>
</svg>
