<svg width="138" height="19" viewBox="0 0 138 19" fill="none" xmlns="http://www.w3.org/2000/svg">
<g clip-path="url(#clip0_1_2690)">
<path d="M79.6768 5.852L74.8105 0L77.5705 13.3L87.5937 0L79.6768 5.852ZM14.7442 11.628L21.4263 3.724L13.9453 6.84L0 3.8L14.7442 11.628Z" fill="#0A0620"/>
<path d="M74.5185 3.4202L71.6133 14.2882H76.6975L74.5185 3.4202ZM86.2849 3.4202L78.4406 14.2882H83.3796L86.2849 3.4202ZM134.585 4.56019C133.757 4.57729 132.951 4.84092 132.261 5.3202C131.936 5.58608 131.643 5.89233 131.389 6.23219L131.68 4.7882H128.629L125.361 17.0242H128.774L129.864 13.2242C130.154 13.9842 130.808 14.4402 131.68 14.4402H132.261C133.132 14.2882 134.004 13.9082 134.875 13.3002C135.384 12.9202 135.892 12.3882 136.328 11.7802C136.691 11.1722 137.054 10.3362 137.272 9.5002C137.635 8.1322 137.635 6.9922 137.2 6.0042C136.764 5.0922 135.892 4.56019 134.585 4.56019ZM133.859 9.5002C133.641 10.1842 133.35 10.7162 132.987 11.0202C132.769 11.3242 132.551 11.4002 132.261 11.5522C132.068 11.5813 131.872 11.5813 131.68 11.5522C131.171 11.5522 130.953 11.4762 130.735 11.0202C130.59 10.6402 130.59 10.1082 130.735 9.5002C130.953 8.5882 131.316 8.13219 131.607 7.9042C131.752 7.6762 132.188 7.2962 132.769 7.2962C133.713 7.2962 134.222 8.0562 133.786 9.5762M59.5564 4.56019C58.7533 4.59143 57.974 4.85446 57.3049 5.3202C56.9545 5.58119 56.6372 5.88763 56.3606 6.23219L56.7238 4.7882H53.6006L50.3322 17.0242H53.7459L54.7627 13.2242C55.1259 13.9842 55.7796 14.4402 56.6512 14.4402H57.2322C58.1038 14.2882 58.9754 13.9082 59.847 13.3002C60.3554 12.9202 60.7912 12.3882 61.227 11.7802C61.5901 11.1722 61.9533 10.3362 62.2438 9.5002C62.607 8.1322 62.5343 6.9922 62.1712 6.0042C61.7354 5.0922 60.8638 4.56019 59.4838 4.56019M58.7575 9.5002C58.6122 10.1842 58.3217 10.7162 57.9585 11.0202C57.7406 11.3242 57.4501 11.4002 57.2322 11.5522C57.0158 11.5891 56.795 11.5891 56.5785 11.5522C56.0701 11.5522 55.8522 11.4762 55.707 11.0202C55.4891 10.6402 55.4891 10.1082 55.707 9.5002C55.9249 8.5882 56.288 8.13219 56.5785 7.9042C56.7238 7.6762 57.1596 7.2962 57.7406 7.2962C58.6849 7.2962 59.1933 8.0562 58.7575 9.5762M0.289062 18.4682L9.00485 14.8202L25.4196 18.6202L7.98801 9.27219L0.289062 18.4682ZM13.0722 0.760195C12.7668 0.779543 12.468 0.861805 12.1931 1.00226C11.9181 1.14272 11.6723 1.33861 11.4699 1.57869C11.2674 1.81877 11.1123 2.09831 11.0133 2.40128C10.9144 2.70425 10.8736 3.02468 10.8933 3.3442C11.0385 4.6362 12.2006 5.6242 13.4354 5.6242C13.7474 5.60525 14.0526 5.52063 14.3327 5.3754C14.6128 5.23018 14.862 5.02734 15.0654 4.77901C15.2688 4.53067 15.4223 4.24196 15.5166 3.93013C15.6109 3.6183 15.6442 3.28977 15.6143 2.9642C15.5962 2.63767 15.5153 2.31833 15.3766 2.02526C15.2378 1.7322 15.0439 1.47144 14.8066 1.25858C14.5693 1.04573 14.2934 0.88515 13.9953 0.786457C13.6973 0.687764 13.3834 0.652983 13.0722 0.684195M122.237 11.5522C122.068 11.7882 121.849 11.9797 121.597 12.1116C121.345 12.2435 121.067 12.3122 120.785 12.3122C120.204 12.3122 119.913 12.1602 119.623 11.8562C119.405 11.4762 119.332 11.0962 119.477 10.4882H126.014C126.523 8.8162 126.523 7.3722 125.869 6.3082C125.288 5.24419 124.199 4.63619 122.528 4.63619L121.656 4.71219C120.374 4.91617 119.176 5.50624 118.209 6.41042C117.242 7.3146 116.547 8.49381 116.209 9.8042C115.846 11.3242 116.064 12.4642 116.717 13.3762C117.444 14.1362 118.461 14.5922 119.913 14.5922C120.982 14.6043 122.043 14.3978 123.036 13.9842C124.119 13.4922 125.013 12.6363 125.579 11.5522H122.237ZM121.656 6.9922H122.092C122.528 6.9922 122.819 7.1442 122.964 7.4482C123.182 7.7522 123.254 8.2082 123.182 8.6642H120.059C120.276 7.75219 120.785 7.1442 121.656 6.9922ZM95.0733 4.9402C94.4922 4.7882 93.6933 4.63619 92.6764 4.63619C91.969 4.64187 91.2637 4.71821 90.5701 4.8642C89.8438 5.0162 89.2627 5.24419 88.7543 5.47219C88.3271 5.72176 87.9524 6.05911 87.6529 6.46397C87.3533 6.86883 87.135 7.33286 87.0112 7.8282H90.4249L90.5701 7.6002C90.6427 7.3722 90.9333 7.1442 91.1512 7.0682C91.3818 6.96971 91.6283 6.91813 91.8775 6.9162C92.168 6.9162 92.3859 6.9162 92.6038 7.0682C92.8217 7.0682 92.967 7.4482 92.8943 7.6762C92.7491 8.0562 92.3133 8.3602 91.6596 8.4362L88.2459 9.0442C87.8143 9.16559 87.3993 9.34438 87.0112 9.5762C86.7206 9.8042 86.3575 10.0322 86.067 10.4122C85.7764 10.7922 85.5585 11.1722 85.4133 11.7802C85.1954 12.6922 85.3406 13.3762 85.8491 13.9082C86.2849 14.3642 86.9385 14.5922 87.7375 14.5922C89.0607 14.6584 90.3586 14.1966 91.3691 13.3002L91.2238 14.2882H94.8554C94.8554 14.2882 94.5648 14.1362 94.7101 13.6802L96.0901 8.5882L96.3806 6.9922C96.3806 6.5362 96.3806 6.1562 96.1628 5.7762C96.0175 5.39619 95.6543 5.16819 95.0733 5.01619M91.4417 11.8562C91.2069 12.135 90.9064 12.3446 90.5701 12.4642H89.9891C89.1901 12.4642 88.8996 12.2362 88.9722 11.7042C89.1175 11.4762 89.2627 11.1722 89.4806 11.0202L90.207 10.7162L91.1512 10.5642L92.168 10.2602C92.0954 10.8682 91.8775 11.4002 91.4417 11.8562ZM102.046 11.6282C101.902 11.7757 101.732 11.8919 101.545 11.9702C101.358 12.0485 101.158 12.0872 100.956 12.0842C100.448 12.0842 100.157 11.8562 100.012 11.4002C99.867 11.0202 99.867 10.2602 100.157 9.3482C100.23 9.1202 100.521 8.3602 100.811 8.0562C100.956 7.7522 101.174 7.5242 101.465 7.3722C101.683 7.2202 101.973 7.1442 102.264 7.1442C102.7 7.1442 102.917 7.2962 103.063 7.5242C103.281 7.75219 103.281 8.0562 103.208 8.5122H106.694C106.912 7.1442 106.622 6.08019 105.895 5.47219C105.169 4.9402 104.152 4.71219 102.99 4.71219C101.537 4.71219 100.23 5.0922 99.068 6.0042C97.8914 6.92798 97.0469 8.24003 96.6712 9.7282C96.2354 11.2482 96.3806 12.4642 97.107 13.3762C97.8333 14.1362 98.8501 14.5922 100.303 14.5922C101.496 14.5923 102.67 14.2787 103.716 13.6802C104.265 13.3676 104.757 12.9559 105.169 12.4642C105.605 12.0082 105.895 11.4002 106.186 10.6402H102.7C102.554 11.0962 102.336 11.4002 102.046 11.6282ZM51.2764 6.08019C50.6954 5.1682 49.6059 4.56019 47.8627 4.56019C47.4234 4.56896 46.9858 4.61984 46.5554 4.71219C45.4659 4.9402 44.4491 5.39619 43.6501 6.08019C42.5935 6.97953 41.8317 8.20178 41.4712 9.5762C41.1806 10.9442 41.2533 12.0842 41.7617 13.0722C42.3427 14.0602 43.4322 14.5922 45.1754 14.5922C45.6838 14.5922 46.1196 14.5922 46.628 14.4402C47.645 14.2396 48.5955 13.7685 49.388 13.0722C50.4447 12.1729 51.2065 10.9506 51.567 9.5762C51.9301 8.2082 51.8575 7.06819 51.2764 6.08019ZM48.2259 9.5762C48.008 10.3362 47.7175 10.9442 47.2817 11.4002C47.0638 11.7042 46.5554 12.1602 45.8291 12.1602C45.3206 12.1602 44.9575 11.9322 44.8122 11.4002C44.6338 10.8065 44.6338 10.1699 44.8122 9.5762C45.0301 8.8162 45.3206 8.2082 45.7564 7.6762C45.9399 7.46796 46.1656 7.30529 46.417 7.20009C46.6683 7.09489 46.9389 7.04983 47.2091 7.0682C47.7175 7.0682 48.1533 7.2202 48.2985 7.6762C48.4438 8.2082 48.4438 8.8162 48.2259 9.5762ZM63.2606 7.5242H65.948L64.1322 14.2882H67.5459L69.3617 7.4482H71.8312L72.5575 4.7882H63.987L63.2606 7.5242ZM107.566 7.5242H110.253L108.51 14.2882H111.851L113.74 7.4482H116.209L116.935 4.7882H108.365L107.566 7.5242ZM32.4649 4.7882L29.9227 14.2882H33.3364L35.1522 7.4482H37.9122L36.0964 14.2882H39.5827L42.1249 4.7882H32.4649ZM26.0006 11.5522C25.8593 11.7033 25.6895 11.8219 25.5019 11.9004C25.3143 11.9789 25.1131 12.0156 24.9112 12.0082C24.4027 12.0082 24.1122 11.7802 23.967 11.3242C23.8217 10.9442 23.8217 10.2602 24.1122 9.27219C24.2854 8.81833 24.5045 8.38519 24.7659 7.9802C24.9112 7.6762 25.1291 7.4482 25.4196 7.2962C25.6375 7.1442 25.928 7.0682 26.2185 7.0682C26.6543 7.0682 26.8722 7.2202 27.0175 7.4482C27.2354 7.6762 27.2354 8.0562 27.1627 8.4362H30.5038C30.7217 7.0682 30.4312 6.00419 29.7049 5.39619C28.9785 4.86419 27.8891 4.63619 26.7996 4.63619C25.3573 4.59171 23.9439 5.06508 22.7943 5.9776C21.6448 6.89013 20.8283 8.18684 20.4806 9.65219C20.0449 11.1722 20.1901 12.3882 20.9164 13.3002C21.6427 14.0602 22.6596 14.5162 24.1122 14.5162C25.3234 14.5526 26.5234 14.2648 27.5985 13.6802C28.1458 13.365 28.6372 12.9537 29.0512 12.4642C29.4143 12.0082 29.7775 11.4002 30.068 10.6402H26.5817C26.4364 11.0962 26.2185 11.4002 25.928 11.6282" fill="#0A0620"/>
</g>
<defs>
<clipPath id="clip0_1_2690">
<rect width="138" height="19" fill="white"/>
</clipPath>
</defs>
</svg>
