<svg width="177" height="18" viewBox="0 0 177 18" fill="none" xmlns="http://www.w3.org/2000/svg">
<path d="M66.913 14.3202C66.913 14.5389 66.8406 14.7208 66.6956 14.8659C66.551 15.0117 66.3698 15.0844 66.152 15.0841H64.8663C64.6489 15.0841 64.4678 15.0114 64.3232 14.8659C64.2516 14.7943 64.1954 14.709 64.158 14.6152C64.1206 14.5214 64.1029 14.421 64.1058 14.3202V11.0109C64.1058 10.7926 64.1783 10.6107 64.3232 10.4652C64.4678 10.3194 64.6489 10.2467 64.8663 10.247H65.2649C65.4367 10.02 65.5906 9.73774 65.7266 9.41957C65.8626 9.09255 65.9708 8.74679 66.0706 8.35572C66.1615 7.97402 66.2429 7.5741 66.3059 7.1648C66.3695 6.75551 66.4057 6.34673 66.433 5.94629L66.5144 4.75537C66.5183 4.6524 66.5428 4.55121 66.5863 4.45764C66.6298 4.36406 66.6916 4.27996 66.7681 4.21016C66.8408 4.13912 66.9271 4.08318 67.0218 4.04562C67.1166 4.00806 67.218 3.98965 67.3201 3.99146H72.9709C73.1883 3.99146 73.3695 4.06436 73.5145 4.21016C73.6591 4.35528 73.7314 4.53701 73.7314 4.75537V10.247H74.474C74.6915 10.247 74.8727 10.3199 75.0176 10.4657C75.1622 10.6108 75.2345 10.7926 75.2345 11.0109V14.3202C75.2345 14.5389 75.1622 14.7208 75.0176 14.8659C74.8727 15.0117 74.6915 15.0844 74.474 15.0841H73.1883C72.9709 15.0841 72.7897 15.0114 72.6447 14.8659C72.5732 14.7943 72.5171 14.7089 72.4798 14.6151C72.4425 14.5213 72.4248 14.421 72.4278 14.3202V13.0652H66.913V14.3202ZM70.7156 6.81018H69.3674L69.3306 7.1747C69.2403 7.93809 69.1132 8.57442 68.9504 9.07485C68.7875 9.57527 68.6153 9.9653 68.4251 10.2475H70.7161L70.7156 6.81018ZM79.1647 9.52841C79.3097 9.95593 79.5812 10.2746 79.9615 10.4746C80.3422 10.6745 80.786 10.7745 81.2839 10.7745C81.619 10.7745 81.9179 10.7563 82.1716 10.711C82.4256 10.6718 82.6746 10.6048 82.9137 10.511C83.0586 10.4564 83.2125 10.4288 83.3575 10.4288C83.6831 10.4288 83.91 10.5746 84.0639 10.8563L84.3895 11.502C84.4442 11.6113 84.4715 11.729 84.4715 11.8655C84.4715 12.1654 84.3533 12.3836 84.1091 12.5294C83.5292 12.8564 83.004 13.0564 82.515 13.1564C82.0355 13.2475 81.5192 13.3022 80.9667 13.3022C80.2157 13.3022 79.536 13.184 78.9383 12.9564C78.3612 12.7449 77.8364 12.4132 77.3995 11.9837C76.9735 11.5655 76.6474 11.0656 76.4121 10.4652C76.1762 9.87417 76.0586 9.21961 76.0586 8.51038C76.0586 7.84661 76.1764 7.22833 76.4121 6.65553C76.6377 6.08752 76.9731 5.5687 77.3995 5.12822C77.8342 4.68268 78.3585 4.33266 78.9383 4.10081C79.545 3.85555 80.2151 3.72797 80.9667 3.72797C81.5465 3.72797 82.0989 3.82795 82.6238 4.02791C83.149 4.22787 83.6201 4.51896 84.0187 4.90066C84.4269 5.28599 84.7558 5.74613 84.9872 6.2556C85.232 6.7831 85.3496 7.36476 85.3496 8.01047C85.3496 8.37394 85.3318 8.67441 85.2866 8.91967C85.2593 9.06548 85.1774 9.20139 85.0329 9.33782C84.888 9.4654 84.7519 9.52893 84.598 9.52893L79.1647 9.52841ZM82.3249 7.51057C82.3249 7.20125 82.1983 6.91016 81.9536 6.65553C81.7094 6.39203 81.338 6.26498 80.858 6.26498C80.351 6.26498 79.9616 6.37398 79.6899 6.592C79.4182 6.8107 79.2099 7.11984 79.0649 7.51942H82.3249V7.51057Z" fill="#0A0620"/>
<path fill-rule="evenodd" clip-rule="evenodd" d="M89.5214 13.0656C89.3043 13.0656 89.1232 12.9927 88.9783 12.8469C88.9068 12.7754 88.8507 12.6903 88.8133 12.5967C88.7759 12.503 88.7581 12.4029 88.7609 12.3022V7.01002H86.9137C86.6962 7.01002 86.515 6.9373 86.3701 6.79184C86.2985 6.72028 86.2423 6.63506 86.205 6.54134C86.1676 6.44763 86.1498 6.34737 86.1526 6.24663V4.75525C86.1526 4.53689 86.2251 4.35516 86.3701 4.21005C86.515 4.06424 86.6962 3.99134 86.9137 3.99134H93.6327C93.8498 3.99134 94.0308 4.06424 94.1758 4.21005C94.3208 4.35516 94.3932 4.53689 94.3932 4.75525V6.24663C94.3932 6.46499 94.3208 6.64673 94.1758 6.79184C94.0312 6.93764 93.8502 7.01055 93.6327 7.01055H91.7856V12.3017C91.7856 12.5201 91.7131 12.702 91.5681 12.8474C91.4235 12.9932 91.2423 13.066 91.0245 13.0656H89.5214ZM101.719 6.92827C101.239 6.683 100.777 6.5648 100.333 6.5648C100.089 6.5648 99.8539 6.60125 99.6275 6.683C99.3979 6.76816 99.186 6.89456 99.0025 7.05585C98.8115 7.22986 98.6576 7.44003 98.5498 7.67396C98.4321 7.91922 98.3775 8.20146 98.3775 8.51963C98.3775 8.82842 98.4411 9.10129 98.5587 9.34707C98.6764 9.59234 98.8302 9.7923 99.0209 9.96518C99.211 10.1381 99.419 10.2651 99.6543 10.3469C99.8901 10.438 100.125 10.4745 100.37 10.4745C100.841 10.4745 101.312 10.3287 101.782 10.0287C101.955 9.9105 102.145 9.84645 102.344 9.84645C102.598 9.84645 102.806 9.95581 102.969 10.1745L103.594 11.0014C103.702 11.1472 103.757 11.3108 103.757 11.4836C103.757 11.7565 103.648 11.9653 103.431 12.1293C102.824 12.611 102.254 12.9292 101.719 13.0745C101.185 13.2203 100.668 13.2932 100.189 13.2932C99.4279 13.2932 98.731 13.1745 98.106 12.9474C97.5128 12.7356 96.9703 12.4045 96.5125 11.9747C96.0701 11.5469 95.7271 11.0288 95.5072 10.4562C95.2719 9.8652 95.1538 9.21064 95.1538 8.5014C95.1501 7.86716 95.267 7.23791 95.4983 6.64655C95.7167 6.07712 96.0494 5.55754 96.4762 5.11924C96.9077 4.67804 97.4252 4.32848 97.9973 4.09184C98.5855 3.84605 99.2378 3.71899 99.9442 3.71899C100.551 3.71899 101.094 3.7735 101.574 3.8825C102.054 3.99186 102.57 4.2189 103.104 4.57352C103.404 4.76463 103.548 5.00052 103.548 5.28275C103.548 5.41919 103.512 5.54625 103.431 5.66445L102.851 6.63718C102.688 6.91004 102.462 7.03762 102.163 7.03762C102.007 7.04826 101.852 7.01 101.719 6.92827ZM108.474 8.72844V12.3017C108.474 12.5201 108.402 12.702 108.257 12.8474C108.112 12.9932 107.931 13.066 107.714 13.0656H106.229C106.012 13.0656 105.831 12.9927 105.686 12.8469C105.614 12.7754 105.558 12.6901 105.521 12.5964C105.483 12.5027 105.466 12.4024 105.468 12.3017V4.74588C105.468 4.52787 105.541 4.34613 105.686 4.20067C105.83 4.05487 106.012 3.98214 106.229 3.98248H107.714C107.932 3.98248 108.113 4.05521 108.258 4.20067C108.402 4.34648 108.475 4.52839 108.475 4.7464V7.93745L110.811 4.48239C110.921 4.33206 111.064 4.2079 111.228 4.11892C111.4 4.02779 111.572 3.97311 111.762 3.97311H113.175C113.401 3.97311 113.591 4.05539 113.736 4.2189C113.881 4.38206 113.954 4.56397 113.954 4.76463C113.954 4.92779 113.9 5.08227 113.791 5.22808L111.662 8.05566L112.65 9.4106C113.021 9.9105 113.383 10.2014 113.736 10.2833C114.044 10.3469 114.252 10.4562 114.352 10.5833C114.452 10.7197 114.506 10.9379 114.506 11.2472V12.4834C114.506 12.6475 114.443 12.7928 114.325 12.9292C114.206 13.0656 114.062 13.1474 113.899 13.1745C113.79 13.1838 113.691 13.2021 113.6 13.2021C113.501 13.2097 113.401 13.2126 113.301 13.2109C113.057 13.2109 112.813 13.1838 112.55 13.1292C112.288 13.0745 112.025 12.9745 111.763 12.8381C111.5 12.6928 111.237 12.5017 110.975 12.2382C110.712 11.9835 110.45 11.6565 110.177 11.2472L108.474 8.72844ZM123.199 13.0656C122.981 13.0656 122.8 12.9927 122.655 12.8469C122.584 12.7753 122.527 12.6901 122.49 12.5964C122.453 12.5026 122.435 12.4024 122.438 12.3017V8.32019L119.558 12.5662C119.456 12.707 119.33 12.8299 119.187 12.9297C119.042 13.0208 118.879 13.0755 118.698 13.0755H116.969C116.751 13.0755 116.57 13.0026 116.425 12.8568C116.353 12.7852 116.297 12.7 116.26 12.6063C116.223 12.5125 116.205 12.4123 116.208 12.3116V4.75525C116.208 4.53689 116.28 4.35516 116.425 4.21005C116.57 4.06424 116.751 3.99134 116.969 3.99134H118.453C118.671 3.99134 118.852 4.06424 118.997 4.21005C119.142 4.35516 119.214 4.53689 119.214 4.75525V8.73781L122.094 4.49176C122.202 4.34596 122.32 4.2189 122.456 4.12777C122.592 4.03716 122.755 3.98248 122.936 3.98248H124.684C124.901 3.98248 125.082 4.05521 125.227 4.20067C125.372 4.34648 125.444 4.52839 125.444 4.7464V12.3022C125.444 12.5199 125.372 12.7016 125.227 12.8474C125.082 12.9932 124.901 13.066 124.684 13.0656H123.199Z" fill="#0A0620"/>
<path d="M134.675 13.0657C134.458 13.0657 134.276 12.9928 134.131 12.847C134.06 12.7754 134.004 12.6902 133.967 12.5964C133.929 12.5027 133.912 12.4025 133.915 12.3018V8.32027L131.035 12.5663C130.932 12.7071 130.807 12.8299 130.663 12.9298C130.518 13.0209 130.356 13.0756 130.174 13.0756H128.445C128.227 13.0756 128.046 13.0027 127.901 12.8569C127.83 12.7853 127.774 12.7001 127.736 12.6064C127.699 12.5127 127.681 12.4124 127.684 12.3117V4.75533C127.684 4.53697 127.756 4.35523 127.901 4.21012C128.046 4.06432 128.227 3.99142 128.445 3.99142H129.93C130.147 3.99142 130.328 4.06432 130.473 4.21012C130.618 4.35523 130.691 4.53697 130.691 4.75533V8.73789L133.57 4.49184C133.679 4.34604 133.796 4.21898 133.932 4.12785C134.068 4.03672 134.231 3.98256 134.412 3.98256H136.16C136.377 3.98256 136.558 4.05529 136.703 4.20075C136.848 4.34656 136.921 4.52846 136.921 4.74648V12.3023C136.921 12.52 136.848 12.7017 136.703 12.8475C136.559 12.9933 136.378 13.066 136.16 13.0657H134.675ZM134.231 0.000520732C134.63 0.000520732 134.938 0.118206 135.146 0.345766C135.354 0.572806 135.454 0.873269 135.454 1.23674C135.454 1.76424 135.191 2.20947 134.675 2.57346C134.159 2.93693 133.389 3.11867 132.375 3.11867C131.252 3.11867 130.437 2.93693 129.948 2.57346C129.459 2.20964 129.214 1.76407 129.214 1.23674C129.214 0.873269 129.314 0.572806 129.514 0.345766C129.713 0.118727 130.021 0 130.419 0C130.763 0 131.026 0.0729026 131.18 0.218708C131.343 0.363992 131.451 0.545728 131.524 0.763915C131.587 0.946171 131.687 1.10031 131.804 1.21851C131.922 1.33672 132.112 1.3914 132.366 1.3914C132.592 1.3914 132.764 1.33672 132.873 1.21851C132.982 1.10031 133.063 0.94565 133.136 0.763915C133.193 0.552295 133.313 0.362391 133.48 0.218187C133.642 0.0729025 133.896 0.000520732 134.231 0.000520732Z" fill="#0A0620"/>
<path fill-rule="evenodd" clip-rule="evenodd" d="M146.183 12.3016C146.183 12.52 146.11 12.7019 145.965 12.8474C145.821 12.9932 145.64 13.0659 145.422 13.0656H143.937C143.72 13.0656 143.538 12.9927 143.394 12.8469C143.322 12.7753 143.266 12.6901 143.228 12.5964C143.191 12.5026 143.173 12.4024 143.176 12.3016V4.74582C143.176 4.5278 143.249 4.34607 143.394 4.20061C143.538 4.05481 143.719 3.98208 143.937 3.98242H145.368C145.712 3.98242 146.029 4.13708 146.291 4.44588L148.6 7.07401L150.729 4.4641C150.841 4.32512 150.975 4.20547 151.127 4.11C151.272 4.01887 151.444 3.98242 151.634 3.98242H152.983C153.2 3.98242 153.382 4.05515 153.526 4.20061C153.671 4.34642 153.744 4.52832 153.744 4.74634V12.3022C153.744 12.5198 153.671 12.7016 153.526 12.8474C153.382 12.9932 153.201 13.0659 152.983 13.0656H151.498C151.281 13.0656 151.1 12.9927 150.955 12.8469C150.883 12.7753 150.827 12.6901 150.79 12.5964C150.753 12.5026 150.735 12.4024 150.738 12.3016V8.60132L149.017 10.5468C148.872 10.7108 148.691 10.7926 148.492 10.7926C148.292 10.7926 148.12 10.7197 147.967 10.5739L146.173 8.61955V12.3016H146.183ZM162.954 13.0656C162.736 13.0656 162.555 12.9927 162.41 12.8469C162.338 12.7753 162.282 12.6901 162.245 12.5964C162.207 12.5026 162.19 12.4024 162.192 12.3016V8.32013L159.313 12.5662C159.211 12.707 159.085 12.8298 158.942 12.9297C158.797 13.0208 158.634 13.0755 158.453 13.0755H156.723C156.506 13.0755 156.324 13.0026 156.18 12.8567C156.108 12.7852 156.052 12.7 156.015 12.6063C155.977 12.5125 155.96 12.4123 155.962 12.3115V4.75519C155.962 4.53683 156.035 4.35509 156.18 4.20998C156.324 4.06418 156.506 3.99128 156.723 3.99128H158.208C158.426 3.99128 158.607 4.06418 158.752 4.20998C158.896 4.35509 158.969 4.53683 158.969 4.75519V8.73775L161.848 4.4917C161.957 4.34589 162.075 4.21884 162.211 4.12771C162.347 4.03658 162.51 3.98242 162.691 3.98242H164.438C164.656 3.98242 164.837 4.05515 164.982 4.20061C165.127 4.34642 165.199 4.52832 165.199 4.74634V12.3022C165.199 12.5198 165.127 12.7016 164.982 12.8474C164.837 12.9932 164.656 13.0659 164.438 13.0656H162.954Z" fill="#0A0620"/>
<path d="M170.444 16.339C170.444 16.557 170.372 16.7388 170.227 16.8842C170.082 17.03 169.901 17.1029 169.684 17.1029H168.198C167.981 17.1029 167.8 17.03 167.655 16.8842C167.584 16.8127 167.527 16.7275 167.49 16.6337C167.453 16.54 167.435 16.4398 167.438 16.339V4.74648C167.438 4.52778 167.51 4.34587 167.655 4.20076C167.8 4.05495 167.981 3.98222 168.198 3.98257H169.792C169.88 3.98027 169.967 3.99607 170.048 4.02898C170.129 4.06188 170.202 4.11116 170.263 4.17368C170.39 4.30074 170.453 4.45487 170.453 4.6465C170.707 4.40072 171.051 4.1919 171.477 4.00965C171.902 3.82791 172.4 3.7373 172.961 3.7373C173.569 3.7373 174.121 3.85551 174.619 4.08255C175.116 4.303 175.553 4.63623 175.895 5.05528C176.24 5.4736 176.512 5.96465 176.71 6.52843C176.901 7.09186 177 7.71049 177 8.38328C177 9.07429 176.883 9.71063 176.647 10.3105C176.425 10.8911 176.089 11.4226 175.66 11.8748C175.235 12.32 174.727 12.6658 174.13 12.9293C173.532 13.1839 172.862 13.311 172.128 13.311C171.821 13.311 171.513 13.2839 171.214 13.2381C170.947 13.2002 170.685 13.1301 170.435 13.0293V16.339H170.444ZM170.444 10.1382C170.67 10.2746 170.888 10.3652 171.078 10.4105C171.268 10.4558 171.531 10.4834 171.857 10.4834C172.518 10.4834 172.998 10.2834 173.315 9.88351C173.632 9.48307 173.786 9.00139 173.786 8.43796C173.786 7.91046 173.632 7.46471 173.333 7.10124C173.034 6.73777 172.59 6.55551 172.011 6.55551C171.449 6.55551 170.924 6.82837 170.444 7.36473V10.1382Z" fill="#0A0620"/>
<path fill-rule="evenodd" clip-rule="evenodd" d="M55.7152 10.7127C55.1617 12.2166 54.5992 13.3148 54.1643 14.0506C53.7163 14.8067 52.8423 15.2035 51.9847 15.0369C51.1637 14.8781 49.9852 14.5854 48.471 14.0485C46.9584 13.5122 45.8622 12.9967 45.128 12.6051C44.7526 12.403 44.4507 12.089 44.2651 11.7076C44.0794 11.3262 44.0193 10.8966 44.0933 10.4794C44.2377 9.63897 44.5203 8.44285 45.0739 6.93846C45.628 5.43354 46.19 4.33635 46.6254 3.60056C47.0729 2.84498 47.9468 2.44818 48.805 2.61429C49.6249 2.77311 50.8029 3.06577 52.3161 3.6016C53.8303 4.13952 54.9264 4.65348 55.6617 5.04663C56.0368 5.24884 56.3384 5.56276 56.5238 5.94407C56.7093 6.32538 56.7693 6.75482 56.6953 7.17174C56.5514 8.01169 56.2688 9.20885 55.7152 10.7127Z" fill="#0A0620"/>
<path fill-rule="evenodd" clip-rule="evenodd" d="M41.0106 6.91649C41.5705 8.41516 41.8583 9.60972 42.0064 10.4471C42.0827 10.8632 42.0249 11.2925 41.8414 11.6743C41.6579 12.0561 41.3579 12.3709 40.9838 12.5743C40.2517 12.97 39.1592 13.4887 37.6498 14.0323C36.1424 14.5749 34.967 14.8717 34.1492 15.0347C33.2931 15.205 32.4187 14.8134 31.968 14.0609C31.5289 13.3272 30.9633 12.2337 30.4029 10.735C29.8435 9.23479 29.5557 8.04179 29.4076 7.20445C29.3315 6.78821 29.3893 6.35879 29.5728 5.97689C29.7563 5.59498 30.0563 5.27992 30.4302 5.07622C31.1613 4.68151 32.2537 4.16286 33.7611 3.61921C35.2711 3.07661 36.4465 2.77927 37.2659 2.61576C38.1214 2.446 38.9964 2.83863 39.446 3.59057C39.8851 4.32324 40.4513 5.4173 41.0106 6.91649Z" fill="#0A0620"/>
<path fill-rule="evenodd" clip-rule="evenodd" d="M26.3402 10.7127C25.7872 12.2166 25.2247 13.3148 24.7893 14.0506C24.3418 14.8067 23.4673 15.2035 22.6096 15.0369C21.7887 14.8781 20.6107 14.5854 19.096 14.0485C17.5834 13.5122 16.4872 12.9967 15.753 12.6051C15.3776 12.403 15.0757 12.089 14.8901 11.7076C14.7044 11.3262 14.6443 10.8966 14.7183 10.4794C14.8627 9.63897 15.1458 8.44285 15.6989 6.93846C16.2535 5.43354 16.815 4.33635 17.2504 3.60056C17.6984 2.84498 18.5718 2.44818 19.43 2.61429C20.2504 2.77311 21.4279 3.06577 22.9416 3.6016C24.4552 4.13952 25.5519 4.65348 26.2872 5.04663C26.6623 5.24884 26.9639 5.56276 27.1494 5.94407C27.3348 6.32538 27.3948 6.75482 27.3208 7.17174C27.1769 8.01169 26.8943 9.20885 26.3402 10.7127Z" fill="#0A0620"/>
<path fill-rule="evenodd" clip-rule="evenodd" d="M11.6351 6.91649C12.195 8.41516 12.4828 9.60972 12.6314 10.4471C12.7076 10.8632 12.6498 11.2926 12.4662 11.6744C12.2826 12.0562 11.9824 12.371 11.6083 12.5743C10.8767 12.97 9.78372 13.4887 8.27479 14.0323C6.7669 14.5749 5.59147 14.8717 4.77371 15.0347C4.35327 15.1162 3.91771 15.0662 3.52711 14.8918C3.13651 14.7174 2.81014 14.4271 2.59302 14.0609C2.15394 13.3272 1.58776 12.2337 1.02789 10.735C0.468533 9.23479 0.180191 8.04179 0.0326058 7.20445C-0.0434594 6.78821 0.0143425 6.35879 0.197842 5.97689C0.381341 5.59498 0.681256 5.27992 1.0552 5.07622C1.78629 4.68151 2.87821 4.16286 4.3861 3.61921C5.89609 3.07661 7.07047 2.77927 7.8898 2.61576C8.74485 2.446 9.62038 2.83863 10.0694 3.59057C10.5085 4.32324 11.0757 5.4173 11.6351 6.91649Z" fill="#0A0620"/>
</svg>
