<svg width="18" height="15" viewBox="0 0 18 15" fill="none" xmlns="http://www.w3.org/2000/svg">
<path fill-rule="evenodd" clip-rule="evenodd" d="M1.22724 6.40483C6.03774 4.3157 9.24016 2.92753 10.8482 2.25406C15.4251 0.343607 16.3872 0.0137443 17.0057 0C17.1431 0 17.4455 0.0274887 17.6517 0.19242C17.8166 0.329863 17.8578 0.508538 17.8853 0.645981C17.9128 0.783424 17.9403 1.07205 17.9128 1.29196C17.6654 3.90337 16.5933 10.2395 16.0436 13.1533C15.8099 14.3902 15.3564 14.8026 14.9165 14.8438C13.9544 14.9263 13.226 14.2116 12.3051 13.6068C10.8482 12.6585 10.0373 12.0675 8.62166 11.1329C6.98609 10.0608 8.0444 9.4698 8.97901 8.5077C9.22641 8.2603 13.4459 4.41191 13.5284 4.0683C13.5421 4.02707 13.5421 3.86214 13.4459 3.77967C13.3497 3.69721 13.2122 3.7247 13.1023 3.75218C12.9511 3.77967 10.6421 5.31903 6.14769 8.35651C5.48797 8.81007 4.89697 9.02998 4.36094 9.01624C3.76993 9.00249 2.6429 8.68637 1.79076 8.41149C0.75994 8.08163 -0.0647167 7.90295 0.00400469 7.32569C0.0452375 7.02332 0.457565 6.72095 1.22724 6.40483Z" fill="#0A0620"/>
</svg>
