<svg width="99" height="31" viewBox="0 0 99 31" fill="none" xmlns="http://www.w3.org/2000/svg">
<path d="M31.6389 0.0292204H29.4032V22.3393H31.6389V0.0292204ZM37.241 0.0292204H35.0045V22.3393H37.241V0.0292204ZM96.0353 10.302V17.7098C96.0353 18.489 95.7311 19.2375 95.1887 19.7919C94.6493 20.3453 93.9122 20.6619 93.1395 20.6723C92.7536 20.6719 92.3717 20.595 92.0157 20.4461C91.6597 20.2972 91.3368 20.0792 91.0656 19.8047C90.5148 19.2466 90.2063 18.4939 90.207 17.7098V10.3013H88.008V17.709C88.008 19.0839 88.5482 20.4026 89.511 21.3751C89.9852 21.8557 90.5502 22.2374 91.173 22.4981C91.7959 22.7588 92.4643 22.8933 93.1395 22.8938C93.8116 22.8884 94.476 22.7503 95.0945 22.4875C95.7131 22.2247 96.2737 21.8423 96.7441 21.3623C97.7003 20.3868 98.2354 19.075 98.2344 17.709V10.3013H96.0353V10.302ZM6.26065 10.0885C4.77349 10.0811 3.33286 10.6065 2.19977 11.5698V0H0V22.3109H2.19902V21.3106C3.33208 22.2739 4.77273 22.7994 6.2599 22.7919C7.08941 22.79 7.91026 22.6232 8.6747 22.3011C9.44133 21.978 10.1365 21.5064 10.7201 20.9135C11.3055 20.3185 11.7686 19.6144 12.083 18.8411C12.3986 18.0658 12.56 17.2364 12.558 16.3994C12.5438 14.725 11.8744 13.1229 10.6932 11.9361C10.1119 11.3521 9.42131 10.8883 8.66076 10.5712C7.90021 10.2542 7.08463 10.0902 6.26065 10.0885ZM6.26065 20.6221C5.72164 20.6207 5.18825 20.5126 4.69124 20.304C4.19423 20.0954 3.74343 19.7905 3.36484 19.4068C2.59524 18.6274 2.16328 17.5764 2.16231 16.481C2.16336 15.3857 2.59531 14.3347 3.36484 13.5552C3.74349 13.1717 4.19432 12.8669 4.69133 12.6585C5.18834 12.45 5.7217 12.342 6.26065 12.3407C6.79947 12.3421 7.33269 12.4502 7.82957 12.6586C8.32644 12.8671 8.77715 13.1718 9.15571 13.5552C9.92524 14.3347 10.3572 15.3857 10.3582 16.481C10.3554 17.5756 9.92306 18.6254 9.15421 19.4046C8.7758 19.788 8.3254 20.0929 7.82884 20.3019C7.33229 20.5108 6.79936 20.6196 6.26065 20.6221ZM79.809 10.117C78.9811 10.1196 78.1618 10.286 77.3984 10.6066C76.6349 10.9272 75.9425 11.3956 75.3608 11.9848C74.1782 13.1825 73.5141 14.7972 73.5117 16.4803C73.5122 18.1638 74.1757 19.7793 75.3586 20.9772C75.9405 21.5666 76.6333 22.035 77.3972 22.3552C78.1611 22.6754 78.9808 22.8411 79.809 22.8428C80.6373 22.8412 81.457 22.6755 82.2209 22.3552C82.9848 22.035 83.6777 21.5667 84.2595 20.9772C85.4422 19.7792 86.1057 18.1637 86.1064 16.4803C86.1059 14.7966 85.4424 13.1808 84.2595 11.9826C83.6777 11.3931 82.9848 10.9248 82.2209 10.6046C81.457 10.2844 80.6373 10.1186 79.809 10.117ZM79.809 20.6213C79.2701 20.6198 78.7368 20.5115 78.2399 20.3028C77.743 20.0941 77.2924 19.7891 76.914 19.4053C76.1442 18.6263 75.7122 17.5755 75.7114 16.4803C75.712 15.3848 76.144 14.3337 76.914 13.5545C77.2924 13.1709 77.7431 12.866 78.24 12.6574C78.7369 12.4489 79.2702 12.3407 79.809 12.3392C80.347 12.3392 80.8805 12.4464 81.3772 12.6539C81.8754 12.8627 82.3274 13.168 82.7071 13.5523C83.2805 14.135 83.6702 14.8732 83.828 15.6754C83.9859 16.4775 83.9048 17.3084 83.5949 18.0649C83.3894 18.5661 83.0878 19.0222 82.7071 19.4076C82.3273 19.7915 81.8754 20.0966 81.3772 20.3052C80.8806 20.5133 80.3475 20.6212 79.809 20.6213ZM45.7434 10.0878C44.9151 10.0894 44.0953 10.2551 43.3315 10.5753C42.5676 10.8956 41.8747 11.3639 41.2929 11.9534C40.1101 13.1513 39.4466 14.7668 39.446 16.4503C39.4467 18.1338 40.1101 19.7493 41.2929 20.9473C41.8747 21.5367 42.5676 22.0051 43.3315 22.3253C44.0953 22.6455 44.9151 22.8112 45.7434 22.8129C46.8242 22.81 47.8858 22.5274 48.825 21.9924C49.7681 21.4549 50.5575 20.6843 51.1176 19.7545L48.9763 19.0127C48.5944 19.5093 48.1042 19.9121 47.543 20.1905C46.9835 20.4676 46.3677 20.6121 45.7434 20.6131C44.8182 20.6094 43.9217 20.2919 43.2004 19.7125C42.4751 19.1292 41.9662 18.3196 41.7551 17.4131H52.0182C52.0452 16.9201 52.0452 16.4256 52.0182 15.9318C51.8928 14.3426 51.177 12.8578 50.0118 11.7698C48.8535 10.6886 47.3279 10.0874 45.7434 10.0878ZM41.8428 15.1916C42.1064 14.358 42.6266 13.6289 43.3293 13.1087C44.0282 12.5919 44.8741 12.312 45.7434 12.31C46.6059 12.3156 47.4448 12.5927 48.1409 13.102C48.8404 13.6141 49.3631 14.3314 49.6364 15.1541L41.8428 15.1916ZM20.8641 10.0878C20.0358 10.0895 19.2161 10.2553 18.4523 10.5755C17.6884 10.8957 16.9955 11.364 16.4136 11.9534C15.2309 13.1514 14.5674 14.7669 14.5667 16.4503C14.5674 18.1338 15.2309 19.7493 16.4136 20.9473C16.9955 21.5367 17.6884 22.005 18.4522 22.3252C19.2161 22.6454 20.0358 22.8112 20.8641 22.8129C21.9449 22.81 23.0065 22.5273 23.9457 21.9924C24.8889 21.455 25.6783 20.6844 26.2384 19.7545L24.0971 19.0127C23.7152 19.5093 23.225 19.9122 22.6638 20.1905C22.1042 20.4676 21.4884 20.6121 20.8641 20.6131C19.9393 20.6104 19.0431 20.2931 18.3227 19.7133C17.5988 19.1295 17.0921 18.3194 16.8841 17.4131H27.1465C27.1772 16.9201 27.1772 16.4256 27.1465 15.9318C27.0193 14.3419 26.302 12.857 25.1355 11.7691C23.976 10.6883 22.4491 10.0875 20.8641 10.0878ZM16.9718 15.1691C17.2352 14.3358 17.7552 13.6071 18.4575 13.087C19.1564 12.57 20.0022 12.2899 20.8716 12.2875C21.7351 12.2888 22.576 12.5642 23.2729 13.0742C23.973 13.5871 24.4944 14.3067 24.7639 15.1316L16.9718 15.1691ZM71.3366 10.302L67.2016 19.0652L62.9579 10.302H60.5086L65.9916 21.6283L61.7621 30.5765H64.1956L73.7702 10.3013H71.3366V10.302Z" fill="#0A0620"/>
</svg>
