<svg width="76" height="16" viewBox="0 0 76 16" fill="none" xmlns="http://www.w3.org/2000/svg">
<path d="M8.86617 12.2316C10.8344 11.9908 12.4244 10.4563 12.6755 8.55533C12.7632 7.90649 12.6953 7.24688 12.4769 6.6274C12.2586 6.00792 11.8957 5.44513 11.4163 4.98245C10.9369 4.51976 10.3537 4.16956 9.7118 3.95885C9.0699 3.74815 8.38643 3.68257 7.71411 3.76719C5.74429 4.00955 4.15431 5.544 3.90475 7.4435C3.81707 8.09234 3.88502 8.75194 4.10335 9.37142C4.32168 9.9909 4.68456 10.5537 5.16399 11.0164C5.64341 11.4791 6.22658 11.8293 6.86848 12.04C7.51037 12.2507 8.19385 12.3162 8.86617 12.2316ZM9.13457 0.0408983C11.0295 0.233416 12.7986 1.0479 14.1459 2.34818C15.4932 3.64846 16.3372 5.35571 16.5367 7.18447C17.0562 12.2438 12.6865 16.4608 7.44257 15.9594C5.5479 15.7666 3.77923 14.952 2.43221 13.6517C1.08519 12.3515 0.241448 10.6444 0.0420269 8.81586C-0.477502 3.75659 3.89219 -0.460485 9.13457 0.0408983ZM20.9849 0.357482H33.1192C33.5807 0.357482 33.8412 0.866439 33.5634 1.22089L25.1678 11.9105H31.7459C32.945 11.9105 33.8883 12.9633 33.6403 14.1629C33.4583 15.043 32.6028 15.6429 31.6737 15.6429H18.4955C18.0388 15.6429 17.7798 15.1384 18.0545 14.7885L26.4564 4.08983H21.0571C20.1279 4.08983 19.2724 3.48848 19.0904 2.60992C18.8408 1.41024 19.7857 0.357482 20.9849 0.357482ZM73.6456 0.399895C74.8982 0.145416 76 1.06033 76 2.22366V15.1036C76 15.5535 75.4616 15.8034 75.0975 15.5247L64.63 7.51015V13.7797C64.63 14.943 63.5282 15.858 62.2756 15.6035C61.3778 15.4217 60.7626 14.6143 60.7626 13.7297V0.895219C60.7626 0.445337 61.3009 0.195403 61.6651 0.474118L72.1341 8.48868V2.27364C72.1341 1.38903 72.751 0.58318 73.6472 0.399895H73.6456ZM46.39 0C52.7986 0 57.9938 3.58088 57.9938 7.9979C57.9938 12.4149 52.7986 15.9958 46.39 15.9958C39.9814 15.9958 34.7861 12.4149 34.7861 7.9979C34.7861 3.58088 39.9814 0 46.39 0ZM46.39 3.73235C41.9622 3.73235 38.6536 5.98479 38.6536 7.9979C38.6536 10.011 41.9622 12.2634 46.39 12.2634C50.8178 12.2634 54.1264 10.0125 54.1264 7.9979C54.1264 5.98328 50.8178 3.73235 46.39 3.73235Z" fill="#0A0620"/>
</svg>
